<?xml version="1.0" encoding="UTF-8"?><svg id="Layer_2" xmlns="http://www.w3.org/2000/svg" viewBox="0 0 868.83 627.13"><defs><style>.cls-1{fill:#fad378;}.cls-2{fill:#4a2b4a;}.cls-3{fill:#ffb267;}.cls-4{fill:none;stroke:#4a2b4a;stroke-miterlimit:10;stroke-width:3px;}</style></defs><g id="Layer_1-2"><g><path class="cls-1" d="M65.13,289.7S87.4,13.29,226.01,42.12s459.76,110.88,459.76,110.88v430.45H65.13V289.7Z"/><path class="cls-3" d="M65.13,393.14S132.44,114.16,201.43,114.16s147.55,428.96,248.13,428.96,81.41-161.34,189-161.34h47.21v202.67H67.84l-2.71-191.32Z"/><path class="cls-2" d="M67.98,0h-5.7V584.45H720.54v-5.7H67.98V0ZM29.23,393.14H1.54c-1.07,0-1.54,.42-1.54,1.39v5.97c0,.96,.47,1.39,1.54,1.39H10.81v6.43H1.54c-1.07,0-1.54,.42-1.54,1.39v5.97c0,.96,.47,1.39,1.54,1.39H29.23c1.07,0,1.54-.42,1.54-1.39v-5.97c0-.96-.47-1.39-1.54-1.39h-9.49v-6.43h9.49c1.07,0,1.54-.42,1.54-1.39v-5.97c0-.96-.47-1.39-1.54-1.39Zm0-31.37h-11.28c-1.71,0-3.85,.46-6.84,1.5l-9.7,3.35c-.98,.31-1.41,.92-1.41,1.93v10.36c0,1.04,.43,1.66,1.41,1.96l9.7,3.35c2.99,1.04,5.13,1.5,6.84,1.5h11.28c1.07,0,1.54-.42,1.54-1.39v-5.66c0-.96-.47-1.39-1.54-1.39h-5.98v-6.81h5.98c1.07,0,1.54-.46,1.54-1.5v-5.81c0-.96-.47-1.39-1.54-1.39Zm-13.76,15.13l-6.5-1.81c-.51-.19-.73-.42-.73-.73v-.96c0-.31,.21-.54,.73-.73l6.5-1.81v6.04Zm13.76-31.29h-7.09v-4.43c0-7.01-3.38-9.09-8.33-9.09h-5.47c-4.96,0-8.33,2.08-8.33,9.09v11.78c0,.96,.47,1.39,1.54,1.39H29.23c1.07,0,1.54-.42,1.54-1.39v-5.97c0-.96-.47-1.39-1.54-1.39Zm-14.79,.08H7.99v-3.47c0-1.5,.98-1.81,2.09-1.81h2.26c1.11,0,2.09,.31,2.09,1.81v3.47Zm14.79-29.02h-7.09v-4.43c0-7.01-3.38-9.09-8.33-9.09h-5.47c-4.96,0-8.33,2.08-8.33,9.09v11.78c0,.96,.47,1.39,1.54,1.39H29.23c1.07,0,1.54-.42,1.54-1.39v-5.97c0-.96-.47-1.39-1.54-1.39Zm-14.79,.08H7.99v-3.47c0-1.5,.98-1.81,2.09-1.81h2.26c1.11,0,2.09,.31,2.09,1.81v3.47Zm14.79-38.84h-5.09c-1.07,0-1.54,.42-1.54,1.39v3.73H8.25v-3.73c0-.96-.47-1.39-1.54-1.39H1.54c-1.07,0-1.54,.42-1.54,1.39v16.4c0,.96,.47,1.39,1.54,1.39H6.71c1.07,0,1.54-.42,1.54-1.39v-3.81h14.36v3.81c0,.96,.47,1.39,1.54,1.39h5.09c1.07,0,1.54-.42,1.54-1.39v-16.4c0-.96-.47-1.39-1.54-1.39Zm0-31.1H1.54c-1.07,0-1.54,.42-1.54,1.39v5.78c0,.96,.47,1.39,1.54,1.39H10.64l-9.49,7.47c-.85,.65-1.15,1.27-1.15,2.27v4c0,.96,.47,1.39,1.54,1.39H29.23c1.07,0,1.54-.42,1.54-1.39v-5.78c0-.96-.47-1.39-1.54-1.39H15.13l8.85-6.58h5.26c1.07,0,1.54-.42,1.54-1.39v-5.78c0-.96-.47-1.39-1.54-1.39Zm0-28.63h-5c-1.07,0-1.54,.42-1.54,1.39v10.63h-3.68v-7.51c0-.96-.47-1.39-1.54-1.39h-4.57c-1.07,0-1.54,.42-1.54,1.39v7.51h-3.29v-10.63c0-.96-.47-1.39-1.54-1.39H1.54c-1.07,0-1.54,.42-1.54,1.39v17.86c0,.96,.47,1.39,1.54,1.39H29.23c1.07,0,1.54-.42,1.54-1.39v-17.86c0-.96-.47-1.39-1.54-1.39Zm-5.98-28.06h-4.49c-4.79,0-6.5,2.39-7.09,6.01l-.85,5.74c-.09,.65-.6,1.04-1.37,1.04s-1.28-.39-1.28-1.04v-8.97c0-.96-.47-1.39-1.54-1.39H1.54c-1.07,0-1.54,.42-1.54,1.39v10.78c0,5.01,2.65,7.97,7.52,7.97h4.49c4.79,0,6.5-2.35,7.09-5.97l.9-5.78c.09-.65,.47-1,1.45-1,.68,0,1.24,.35,1.24,1v10.36c0,.96,.47,1.39,1.54,1.39h5c1.07,0,1.54-.42,1.54-1.39v-12.17c0-4.97-2.65-7.97-7.52-7.97Zm0-27.52h-4.49c-4.79,0-6.5,2.39-7.09,6.01l-.85,5.74c-.09,.65-.6,1.04-1.37,1.04s-1.28-.38-1.28-1.04v-8.97c0-.96-.47-1.39-1.54-1.39H1.54c-1.07,0-1.54,.42-1.54,1.39v10.78c0,5.01,2.65,7.97,7.52,7.97h4.49c4.79,0,6.5-2.35,7.09-5.97l.9-5.78c.09-.65,.47-1,1.45-1,.68,0,1.24,.35,1.24,1v10.36c0,.96,.47,1.39,1.54,1.39h5c1.07,0,1.54-.42,1.54-1.39v-12.17c0-4.97-2.65-7.97-7.52-7.97Zm314.88,433.75h-20.32c-.96,0-1.39,.47-1.39,1.54v5.17c0,1.07,.42,1.54,1.39,1.54h5.66v20.99c0,1.07,.42,1.54,1.39,1.54h6.23c.96,0,1.39-.47,1.39-1.54v-20.99h5.66c.96,0,1.39-.47,1.39-1.54v-5.17c0-1.07-.42-1.54-1.39-1.54Zm24.97,0h-16.39c-.96,0-1.39,.47-1.39,1.54v5.17c0,1.07,.42,1.54,1.39,1.54h3.81v14.37h-3.81c-.96,0-1.39,.47-1.39,1.54v5.09c0,1.07,.42,1.54,1.39,1.54h16.39c.96,0,1.39-.47,1.39-1.54v-5.09c0-1.07-.42-1.54-1.39-1.54h-3.73v-14.37h3.73c.96,0,1.39-.47,1.39-1.54v-5.17c0-1.07-.42-1.54-1.39-1.54Zm34.78,0h-6.23c-.81,0-1.31,.34-1.77,1.28l-3.42,6.97c-.27,.51-.38,.73-.69,.73h-.35c-.31,0-.42-.21-.69-.73l-3.46-6.97c-.46-.94-.96-1.28-1.77-1.28h-6.2c-.96,0-1.39,.47-1.39,1.54v27.71c0,1.07,.42,1.54,1.39,1.54h5.73c.96,0,1.39-.47,1.39-1.54v-15.05l2.27,4.66c.46,.98,1.04,1.37,2.04,1.37h1.54c1,0,1.58-.38,2.04-1.37l2.27-4.66v15.05c0,1.07,.38,1.54,1.39,1.54h5.93c.96,0,1.39-.47,1.39-1.54v-27.71c0-1.07-.42-1.54-1.39-1.54Zm28.62,0h-17.86c-.96,0-1.39,.47-1.39,1.54v27.71c0,1.07,.42,1.54,1.39,1.54h17.86c.96,0,1.39-.47,1.39-1.54v-5c0-1.07-.42-1.54-1.39-1.54h-10.62v-3.68h7.5c.96,0,1.39-.47,1.39-1.54v-4.57c0-1.07-.42-1.54-1.39-1.54h-7.5v-3.29h10.62c.96,0,1.39-.47,1.39-1.54v-5c0-1.07-.42-1.54-1.39-1.54Zm282.66-180.19h3.18c.51,0,.74-.25,.74-.82v-14.78c0-.57-.23-.82-.74-.82h-3.18c-.51,0-.74,.25-.74,.82v4.95h-3.43v-4.95c0-.57-.23-.82-.74-.82h-3.18c-.51,0-.74,.25-.74,.82v14.78c0,.57,.23,.82,.74,.82h3.18c.51,0,.74-.25,.74-.82v-5.06h3.43v5.06c0,.57,.23,.82,.74,.82Zm14.34-16.76c-5.13,0-6.38,1.89-6.38,4.68v7.78c0,2.78,1.25,4.65,6.38,4.65s6.36-1.87,6.36-4.65v-7.78c0-2.78-1.23-4.68-6.36-4.68Zm1.72,11.63c0,.62-.23,1.07-1.72,1.07s-1.72-.46-1.72-1.07v-6.13c0-.59,.25-1.05,1.72-1.05s1.72,.46,1.72,1.05v6.13Zm22.53-11.29h-3.32c-.43,0-.7,.18-.94,.68l-1.83,3.72c-.14,.27-.21,.39-.37,.39h-.18c-.16,0-.23-.11-.37-.39l-1.85-3.72c-.25-.5-.51-.68-.94-.68h-3.3c-.51,0-.74,.25-.74,.82v14.78c0,.57,.23,.82,.74,.82h3.06c.51,0,.74-.25,.74-.82v-8.03l1.21,2.49c.25,.52,.55,.73,1.09,.73h.82c.53,0,.84-.21,1.09-.73l1.21-2.49v8.03c0,.57,.21,.82,.74,.82h3.16c.51,0,.74-.25,.74-.82v-14.78c0-.57-.23-.82-.74-.82Zm15.26,0h-9.52c-.51,0-.74,.25-.74,.82v14.78c0,.57,.23,.82,.74,.82h9.52c.51,0,.74-.25,.74-.82v-2.67c0-.57-.23-.82-.74-.82h-5.66v-1.96h4c.51,0,.74-.25,.74-.82v-2.44c0-.57-.23-.82-.74-.82h-4v-1.76h5.66c.51,0,.74-.25,.74-.82v-2.67c0-.57-.23-.82-.74-.82Zm10.65-.34c-5.13,0-6.38,1.89-6.38,4.68v7.78c0,2.78,1.25,4.65,6.38,4.65s6.36-1.87,6.36-4.65v-7.78c0-2.78-1.23-4.68-6.36-4.68Zm1.72,11.63c0,.62-.23,1.07-1.72,1.07s-1.72-.46-1.72-1.07v-6.13c0-.59,.25-1.05,1.72-1.05s1.72,.46,1.72,1.05v6.13Zm16.58-5.06l-3.06-.46c-.35-.05-.55-.32-.55-.73s.21-.68,.55-.68h4.78c.51,0,.74-.25,.74-.82v-2.71c0-.57-.23-.82-.74-.82h-5.75c-2.67,0-4.25,1.41-4.25,4.01v2.39c0,2.55,1.25,3.47,3.18,3.79l3.08,.48c.35,.05,.53,.25,.53,.78,0,.36-.18,.66-.53,.66h-5.52c-.51,0-.74,.25-.74,.82v2.67c0,.57,.23,.82,.74,.82h6.49c2.65,0,4.25-1.41,4.25-4.01v-2.39c0-2.55-1.27-3.47-3.2-3.79Zm17.4-6.23h-10.84c-.51,0-.74,.25-.74,.82v2.76c0,.57,.23,.82,.74,.82h3.02v11.2c0,.57,.23,.82,.74,.82h3.32c.51,0,.74-.25,.74-.82v-11.2h3.02c.51,0,.74-.25,.74-.82v-2.76c0-.57-.23-.82-.74-.82Zm13.21,.75c-.16-.52-.49-.75-1.03-.75h-5.52c-.55,0-.88,.23-1.05,.75l-1.79,5.18c-.55,1.6-.8,2.74-.8,3.65v6.02c0,.57,.23,.82,.74,.82h3.02c.51,0,.74-.25,.74-.82v-3.19h3.63v3.19c0,.57,.25,.82,.8,.82h3.1c.51,0,.74-.25,.74-.82v-6.02c0-.91-.25-2.05-.8-3.65l-1.79-5.18Zm-5.48,7.5l.96-3.47c.1-.27,.23-.39,.39-.39h.51c.16,0,.29,.11,.39,.39l.96,3.47h-3.22Zm19.92-2.03l-3.06-.46c-.35-.05-.55-.32-.55-.73s.21-.68,.55-.68h4.78c.51,0,.74-.25,.74-.82v-2.71c0-.57-.23-.82-.74-.82h-5.75c-2.67,0-4.25,1.41-4.25,4.01v2.39c0,2.55,1.25,3.47,3.18,3.79l3.08,.48c.35,.05,.53,.25,.53,.78,0,.36-.18,.66-.53,.66h-5.52c-.51,0-.74,.25-.74,.82v2.67c0,.57,.23,.82,.74,.82h6.49c2.65,0,4.25-1.41,4.25-4.01v-2.39c0-2.55-1.27-3.47-3.2-3.79Zm16.02-6.23h-8.74c-.51,0-.74,.25-.74,.82v2.76c0,.57,.23,.82,.74,.82h2.03v7.66h-2.03c-.51,0-.74,.25-.74,.82v2.71c0,.57,.23,.82,.74,.82h8.74c.51,0,.74-.25,.74-.82v-2.71c0-.57-.23-.82-.74-.82h-1.99v-7.66h1.99c.51,0,.74-.25,.74-.82v-2.76c0-.57-.23-.82-.74-.82Zm12.6,6.23l-3.06-.46c-.35-.05-.55-.32-.55-.73s.21-.68,.55-.68h4.78c.51,0,.74-.25,.74-.82v-2.71c0-.57-.23-.82-.74-.82h-5.75c-2.67,0-4.25,1.41-4.25,4.01v2.39c0,2.55,1.25,3.47,3.18,3.79l3.08,.48c.35,.05,.53,.25,.53,.78,0,.36-.18,.66-.53,.66h-5.52c-.51,0-.74,.25-.74,.82v2.67c0,.57,.23,.82,.74,.82h6.49c2.65,0,4.25-1.41,4.25-4.01v-2.39c0-2.55-1.27-3.47-3.2-3.79Zm-160.65-31.06c0-.57-.23-.82-.74-.82h-3.18c-.51,0-.74,.25-.74,.82v14.78c0,.57,.23,.82,.74,.82h3.18c.51,0,.74-.25,.74-.82v-5.06h3.43v5.06c0,.57,.23,.82,.74,.82h3.18c.51,0,.74-.25,.74-.82v-14.78c0-.57-.23-.82-.74-.82h-3.18c-.51,0-.74,.25-.74,.82v4.95h-3.43v-4.95Zm20.97,15.6h3.1c.51,0,.74-.25,.74-.82v-6.02c0-.91-.25-2.05-.8-3.65l-1.79-5.18c-.16-.52-.49-.75-1.03-.75h-5.52c-.55,0-.88,.23-1.05,.75l-1.79,5.18c-.55,1.6-.8,2.74-.8,3.65v6.02c0,.57,.23,.82,.74,.82h3.02c.51,0,.74-.25,.74-.82v-3.19h3.63v3.19c0,.57,.25,.82,.8,.82Zm-4.23-8.16l.96-3.47c.1-.27,.23-.39,.39-.39h.51c.16,0,.29,.11,.39,.39l.96,3.47h-3.22Zm12.76,8.16h3.18c.51,0,.74-.25,.74-.82v-3.79h2.36c3.73,0,4.84-1.8,4.84-4.45v-2.92c0-2.65-1.11-4.45-4.84-4.45h-6.28c-.51,0-.74,.25-.74,.82v14.78c0,.57,.23,.82,.74,.82Zm3.88-12.16h1.85c.8,0,.96,.52,.96,1.12v1.21c0,.59-.16,1.12-.96,1.12h-1.85v-3.44Zm15.47,11.33v-3.79h2.36c3.73,0,4.84-1.8,4.84-4.45v-2.92c0-2.65-1.11-4.45-4.84-4.45h-6.28c-.51,0-.74,.25-.74,.82v14.78c0,.57,.23,.82,.74,.82h3.18c.51,0,.74-.25,.74-.82Zm-.04-11.33h1.85c.8,0,.96,.52,.96,1.12v1.21c0,.59-.16,1.12-.96,1.12h-1.85v-3.44Zm20.7,11.33v-2.71c0-.57-.23-.82-.74-.82h-1.99v-7.66h1.99c.51,0,.74-.25,.74-.82v-2.76c0-.57-.23-.82-.74-.82h-8.74c-.51,0-.74,.25-.74,.82v2.76c0,.57,.23,.82,.74,.82h2.03v7.66h-2.03c-.51,0-.74,.25-.74,.82v2.71c0,.57,.23,.82,.74,.82h8.74c.51,0,.74-.25,.74-.82Zm12.02,0c0,.57,.23,.82,.74,.82h3.08c.51,0,.74-.25,.74-.82v-14.78c0-.57-.23-.82-.74-.82h-3.08c-.51,0-.74,.25-.74,.82v4.86l-3.98-5.06c-.35-.46-.68-.62-1.21-.62h-2.13c-.51,0-.74,.25-.74,.82v14.78c0,.57,.23,.82,.74,.82h3.08c.51,0,.74-.25,.74-.82v-7.53l3.51,4.72v2.81Zm19.82,0v-2.67c0-.57-.23-.82-.74-.82h-5.66v-1.96h4c.51,0,.74-.25,.74-.82v-2.44c0-.57-.23-.82-.74-.82h-4v-1.76h5.66c.51,0,.74-.25,.74-.82v-2.67c0-.57-.23-.82-.74-.82h-9.52c-.51,0-.74,.25-.74,.82v14.78c0,.57,.23,.82,.74,.82h9.52c.51,0,.74-.25,.74-.82Zm14.96-3.19v-2.39c0-2.55-1.27-3.47-3.2-3.79l-3.06-.46c-.35-.05-.55-.32-.55-.73s.21-.68,.55-.68h4.78c.51,0,.74-.25,.74-.82v-2.71c0-.57-.23-.82-.74-.82h-5.75c-2.67,0-4.25,1.41-4.25,4.01v2.39c0,2.55,1.25,3.47,3.18,3.79l3.08,.48c.35,.05,.53,.25,.53,.78,0,.36-.18,.66-.53,.66h-5.52c-.51,0-.74,.25-.74,.82v2.67c0,.57,.23,.82,.74,.82h6.49c2.65,0,4.25-1.41,4.25-4.01Zm14.67,0v-2.39c0-2.55-1.27-3.47-3.2-3.79l-3.06-.46c-.35-.05-.55-.32-.55-.73s.21-.68,.55-.68h4.78c.51,0,.74-.25,.74-.82v-2.71c0-.57-.23-.82-.74-.82h-5.75c-2.67,0-4.25,1.41-4.25,4.01v2.39c0,2.55,1.25,3.47,3.18,3.79l3.08,.48c.35,.05,.53,.25,.53,.78,0,.36-.18,.66-.53,.66h-5.52c-.51,0-.74,.25-.74,.82v2.67c0,.57,.23,.82,.74,.82h6.49c2.65,0,4.25-1.41,4.25-4.01ZM115.66,308.53h4.95c.8,0,1.16-.39,1.16-1.29v-7h4.5c.9,0,1.22,.46,1.22,1.54v5.47c0,.89,.35,1.29,1.16,1.29h4.98c.8,0,1.16-.39,1.16-1.29v-7.57c0-3-1.54-4.9-3.89-5.18,1.35-.64,1.8-2.07,1.8-4.07v-1.64c0-3.54-1.51-5.97-6.33-5.97h-10.71c-.8,0-1.16,.39-1.16,1.29v23.15c0,.89,.35,1.29,1.16,1.29Zm6.11-19.29h2.41c1.13,0,1.41,.71,1.41,1.68v1.21c0,.96-.29,1.68-1.41,1.68h-2.41v-4.57Zm20.03,19.29h14.92c.8,0,1.16-.39,1.16-1.29v-4.18c0-.89-.35-1.29-1.16-1.29h-8.87v-3.07h6.27c.8,0,1.16-.39,1.16-1.29v-3.82c0-.89-.35-1.29-1.16-1.29h-6.27v-2.75h8.87c.8,0,1.16-.39,1.16-1.29v-4.18c0-.89-.35-1.29-1.16-1.29h-14.92c-.8,0-1.16,.39-1.16,1.29v23.15c0,.89,.35,1.29,1.16,1.29Zm29.51,0h10.13c.8,0,1.16-.39,1.16-1.29v-11.04c0-.89-.35-1.29-1.16-1.29h-4.98c-.8,0-1.16,.39-1.16,1.29v5.57h-3.12c-1,0-1.48-.54-1.48-1.75v-8.54c0-1.21,.61-1.79,1.96-1.79h6.69c.8,0,1.16-.39,1.16-1.29v-4.32c0-.89-.35-1.29-1.16-1.29h-8.04c-5.4,0-7.91,2.32-7.91,7.29v11.15c0,4.97,2.51,7.29,7.91,7.29Zm27.23,.54c7.97,0,9.94-2.93,9.94-7.29v-17.69c0-.89-.35-1.29-1.16-1.29h-4.89c-.84,0-1.16,.39-1.16,1.29v16.29c0,.96-.39,1.68-2.67,1.68s-2.64-.71-2.64-1.68v-16.29c0-.89-.35-1.29-1.16-1.29h-5.05c-.8,0-1.16,.39-1.16,1.29v17.69c0,4.36,1.96,7.29,9.94,7.29Zm17.61-.54h16.37c.8,0,1.16-.39,1.16-1.29v-11.26c0-.89-.35-1.29-1.16-1.29h-4.66c-.8,0-1.16,.39-1.16,1.29v5.79h-4.41v-17.69c0-.89-.35-1.29-1.16-1.29h-4.98c-.8,0-1.16,.39-1.16,1.29v23.15c0,.89,.35,1.29,1.16,1.29Zm24.11,0h4.73c.8,0,1.16-.39,1.16-1.29v-5h5.69v5c0,.89,.39,1.29,1.25,1.29h4.86c.8,0,1.16-.39,1.16-1.29v-9.43c0-1.43-.39-3.22-1.25-5.72l-2.8-8.11c-.26-.82-.77-1.18-1.61-1.18h-8.65c-.87,0-1.38,.36-1.64,1.18l-2.8,8.11c-.87,2.5-1.25,4.29-1.25,5.72v9.43c0,.89,.35,1.29,1.16,1.29Zm7.72-18.22c.16-.43,.35-.61,.61-.61h.8c.26,0,.45,.18,.61,.61l1.51,5.43h-5.05l1.51-5.43Zm18.48,18.22h4.95c.8,0,1.16-.39,1.16-1.29v-7h4.5c.9,0,1.22,.46,1.22,1.54v5.47c0,.89,.35,1.29,1.16,1.29h4.98c.8,0,1.16-.39,1.16-1.29v-7.57c0-3-1.54-4.9-3.89-5.18,1.35-.64,1.8-2.07,1.8-4.07v-1.64c0-3.54-1.51-5.97-6.33-5.97h-10.71c-.8,0-1.16,.39-1.16,1.29v23.15c0,.89,.35,1.29,1.16,1.29Zm6.11-19.29h2.41c1.13,0,1.41,.71,1.41,1.68v1.21c0,.96-.29,1.68-1.41,1.68h-2.41v-4.57Zm-115.09,30.85c0-.89-.35-1.29-1.16-1.29h-4.95c-.8,0-1.16,.39-1.16,1.29v13.79c0,1.54,0,2.68,.58,4.43l1.61,4.93c.23,.75,.71,1.29,1.41,1.29h4.24c.68,0,1.16-.36,1.35-1.07l1.51-5.82c.13-.46,.32-.61,.58-.61h.29c.26,0,.45,.14,.58,.61l1.48,5.82c.19,.75,.77,1.07,1.48,1.07h4.28c.68,0,1.06-.57,1.29-1.29l1.61-4.86c.58-1.75,.58-2.89,.58-4.43v-13.86c0-.89-.35-1.29-1.16-1.29h-4.79c-.84,0-1.16,.39-1.16,1.29v13.15l-1.86-4.5c-.35-.82-.87-1.11-1.7-1.11h-1.35c-.84,0-1.35,.29-1.7,1.11l-1.86,4.5v-13.15Zm38.06,5.47c.8,0,1.16-.39,1.16-1.29v-4.18c0-.89-.35-1.29-1.16-1.29h-14.92c-.8,0-1.16,.39-1.16,1.29v23.15c0,.89,.35,1.29,1.16,1.29h14.92c.8,0,1.16-.39,1.16-1.29v-4.18c0-.89-.35-1.29-1.16-1.29h-8.87v-3.07h6.27c.8,0,1.16-.39,1.16-1.29v-3.82c0-.89-.35-1.29-1.16-1.29h-6.27v-2.75h8.87Zm23.27,0c.8,0,1.16-.39,1.16-1.29v-4.18c0-.89-.35-1.29-1.16-1.29h-14.92c-.8,0-1.16,.39-1.16,1.29v23.15c0,.89,.35,1.29,1.16,1.29h14.92c.8,0,1.16-.39,1.16-1.29v-4.18c0-.89-.35-1.29-1.16-1.29h-8.87v-3.07h6.27c.8,0,1.16-.39,1.16-1.29v-3.82c0-.89-.35-1.29-1.16-1.29h-6.27v-2.75h8.87Zm7.2-5.47v23.15c0,.89,.35,1.29,1.16,1.29h10.84c5.4,0,7.91-2.32,7.91-7.29v-11.15c0-4.97-2.51-7.29-7.91-7.29h-10.84c-.8,0-1.16,.39-1.16,1.29Zm7.3,5.54h3.83c1.03,0,1.51,.54,1.51,1.72v8.68c0,1.21-.48,1.75-1.51,1.75h-3.83v-12.15Zm197.09-26.38c.23,.75,.71,1.29,1.41,1.29h4.24c.68,0,1.16-.36,1.35-1.07l1.51-5.82c.13-.46,.32-.61,.58-.61h.29c.26,0,.45,.14,.58,.61l1.48,5.82c.19,.75,.77,1.07,1.48,1.07h4.28c.68,0,1.06-.57,1.29-1.29l1.61-4.86c.58-1.75,.58-2.89,.58-4.43v-13.86c0-.89-.35-1.29-1.16-1.29h-4.79c-.84,0-1.16,.39-1.16,1.29v13.15l-1.86-4.5c-.35-.82-.87-1.11-1.7-1.11h-1.35c-.84,0-1.35,.29-1.7,1.11l-1.86,4.5v-13.15c0-.89-.35-1.29-1.16-1.29h-4.95c-.8,0-1.16,.39-1.16,1.29v13.79c0,1.54,0,2.68,.58,4.43l1.61,4.93Zm44.3,0v-4.18c0-.89-.35-1.29-1.16-1.29h-8.87v-3.07h6.27c.8,0,1.16-.39,1.16-1.29v-3.82c0-.89-.35-1.29-1.16-1.29h-6.27v-2.75h8.87c.8,0,1.16-.39,1.16-1.29v-4.18c0-.89-.35-1.29-1.16-1.29h-14.92c-.8,0-1.16,.39-1.16,1.29v23.15c0,.89,.35,1.29,1.16,1.29h14.92c.8,0,1.16-.39,1.16-1.29Zm22.12-17.69c.8,0,1.16-.39,1.16-1.29v-4.18c0-.89-.35-1.29-1.16-1.29h-14.92c-.8,0-1.16,.39-1.16,1.29v23.15c0,.89,.35,1.29,1.16,1.29h14.92c.8,0,1.16-.39,1.16-1.29v-4.18c0-.89-.35-1.29-1.16-1.29h-8.87v-3.07h6.27c.8,0,1.16-.39,1.16-1.29v-3.82c0-.89-.35-1.29-1.16-1.29h-6.27v-2.75h8.87Zm7.2-5.47v23.15c0,.89,.35,1.29,1.16,1.29h10.84c5.4,0,7.91-2.32,7.91-7.29v-11.15c0-4.97-2.51-7.29-7.91-7.29h-10.84c-.8,0-1.16,.39-1.16,1.29Zm7.3,5.54h3.83c1.03,0,1.51,.54,1.51,1.72v8.68c0,1.21-.48,1.75-1.51,1.75h-3.83v-12.15Zm-62.31-18.18c8.04,0,9.97-2.93,9.97-7.29v-12.18c0-4.36-1.93-7.32-9.97-7.32s-10,2.97-10,7.32v12.18c0,4.36,1.96,7.29,10,7.29Zm-2.7-18.19c0-.93,.39-1.64,2.7-1.64s2.7,.71,2.7,1.64v9.61c0,.96-.35,1.68-2.7,1.68s-2.7-.71-2.7-1.68v-9.61Zm28.77,18.19c7.97,0,9.94-2.93,9.94-7.29v-17.69c0-.89-.35-1.29-1.16-1.29h-4.89c-.84,0-1.16,.39-1.16,1.29v16.29c0,.96-.39,1.68-2.67,1.68s-2.64-.71-2.64-1.68v-16.29c0-.89-.35-1.29-1.16-1.29h-5.05c-.8,0-1.16,.39-1.16,1.29v17.69c0,4.36,1.96,7.29,9.94,7.29Zm17.61-.54h4.95c.8,0,1.16-.39,1.16-1.29v-7h4.5c.9,0,1.22,.46,1.22,1.54v5.47c0,.89,.35,1.29,1.16,1.29h4.98c.8,0,1.16-.39,1.16-1.29v-7.57c0-3-1.54-4.9-3.89-5.18,1.35-.64,1.8-2.07,1.8-4.07v-1.64c0-3.54-1.51-5.97-6.33-5.97h-10.71c-.8,0-1.16,.39-1.16,1.29v23.15c0,.89,.35,1.29,1.16,1.29Zm6.11-19.29h2.41c1.13,0,1.41,.71,1.41,1.68v1.21c0,.96-.29,1.68-1.41,1.68h-2.41v-4.57Zm-171.52,245.9v3.57c0,3.81,1.87,5.17,4.75,5.65l4.59,.71c.52,.07,.8,.37,.8,1.16,0,.54-.28,.99-.8,.99h-8.24c-.77,0-1.1,.37-1.1,1.23v3.98c0,.85,.34,1.23,1.1,1.23h9.67c3.95,0,6.34-2.11,6.34-5.99v-3.57c0-3.81-1.9-5.17-4.78-5.65l-4.56-.68c-.52-.07-.83-.48-.83-1.09s.31-1.02,.83-1.02h7.13c.77,0,1.1-.37,1.1-1.22v-4.05c0-.85-.34-1.22-1.1-1.22h-8.57c-3.98,0-6.34,2.11-6.34,5.99Zm22.59-4.76v22.05c0,.85,.34,1.23,1.1,1.23h4.56c.77,0,1.1-.37,1.1-1.23v-11.98l1.81,3.71c.37,.78,.83,1.09,1.62,1.09h1.22c.8,0,1.26-.31,1.62-1.09l1.81-3.71v11.98c0,.85,.31,1.23,1.1,1.23h4.72c.77,0,1.1-.37,1.1-1.23v-22.05c0-.85-.34-1.22-1.1-1.22h-4.96c-.64,0-1.04,.27-1.41,1.02l-2.72,5.55c-.21,.41-.31,.58-.55,.58h-.28c-.25,0-.34-.17-.55-.58l-2.76-5.55c-.37-.75-.77-1.02-1.41-1.02h-4.93c-.77,0-1.1,.37-1.1,1.22Zm37.31,23.79c7.65,0,9.49-2.79,9.49-6.94v-11.6c0-4.15-1.84-6.98-9.49-6.98s-9.52,2.82-9.52,6.98v11.6c0,4.15,1.87,6.94,9.52,6.94Zm-2.57-17.32c0-.88,.37-1.57,2.57-1.57s2.57,.68,2.57,1.57v9.15c0,.92-.34,1.6-2.57,1.6s-2.57-.68-2.57-1.6v-9.15Zm19.19,16.81h4.75c.77,0,1.1-.37,1.1-1.23v-7.79h4.04c.64,0,.98,.41,.98,1.16v6.64c0,.85,.34,1.23,1.1,1.23h4.71c.77,0,1.1-.37,1.1-1.23v-9.6c0-2.72-1.47-4.49-3.77-4.63l3.12-7.93c.28-.71,.03-1.12-.67-1.12h-4.71c-.8,0-1.22,.31-1.53,1.12l-3.15,7.93h-1.22v-7.83c0-.85-.34-1.22-1.1-1.22h-4.75c-.77,0-1.1,.37-1.1,1.22v22.05c0,.85,.34,1.23,1.1,1.23Zm39.18-18.07c.77,0,1.1-.37,1.1-1.22v-3.98c0-.85-.34-1.22-1.1-1.22h-14.21c-.77,0-1.1,.37-1.1,1.22v22.05c0,.85,.34,1.23,1.1,1.23h14.21c.77,0,1.1-.37,1.1-1.23v-3.98c0-.85-.34-1.23-1.1-1.23h-8.45v-2.93h5.97c.77,0,1.1-.37,1.1-1.22v-3.64c0-.85-.34-1.22-1.1-1.22h-5.97v-2.62h8.45Zm7.95,18.07h10.32c5.14,0,7.53-2.21,7.53-6.94v-10.62c0-4.73-2.39-6.94-7.53-6.94h-10.32c-.77,0-1.1,.37-1.1,1.22v22.05c0,.85,.34,1.23,1.1,1.23Zm5.85-18h3.64c.98,0,1.44,.51,1.44,1.63v8.27c0,1.16-.46,1.67-1.44,1.67h-3.64v-11.57Zm28.15,18h11.76c4.07,0,5.94-1.77,5.94-5.58v-3.13c0-3.33-1.22-5-3.86-5.27,1.22-.58,1.81-1.77,1.81-3.68v-1.63c0-3.57-1.87-5.21-5.88-5.21h-9.77c-.77,0-1.1,.37-1.1,1.22v22.05c0,.85,.34,1.23,1.1,1.23Zm5.79-18.72h2.6c.8,0,1.16,.44,1.16,1.36v.95c0,.92-.37,1.36-1.16,1.36h-2.6v-3.68Zm0,8.92h3.98c.8,0,1.16,.41,1.16,1.33v1.33c0,.92-.37,1.36-1.16,1.36h-3.98v-4.02Zm17.1-8.23v11.6c0,4.15,1.87,6.94,9.52,6.94s9.49-2.79,9.49-6.94v-11.6c0-4.15-1.84-6.98-9.49-6.98s-9.52,2.82-9.52,6.98Zm12.09,1.22v9.15c0,.92-.34,1.6-2.57,1.6s-2.57-.68-2.57-1.6v-9.15c0-.88,.37-1.57,2.57-1.57s2.57,.68,2.57,1.57Zm12.6-1.22v11.6c0,4.15,1.87,6.94,9.52,6.94s9.49-2.79,9.49-6.94v-11.6c0-4.15-1.84-6.98-9.49-6.98s-9.52,2.82-9.52,6.98Zm12.09,1.22v9.15c0,.92-.34,1.6-2.57,1.6s-2.57-.68-2.57-1.6v-9.15c0-.88,.37-1.57,2.57-1.57s2.57,.68,2.57,1.57Zm12.94-6.47v22.05c0,.85,.34,1.23,1.1,1.23h4.75c.77,0,1.1-.37,1.1-1.23v-6.7h5.33c.77,0,1.1-.37,1.1-1.23v-4.08c0-.85-.34-1.23-1.1-1.23h-5.33v-3.54h7.81c.77,0,1.1-.37,1.1-1.22v-4.05c0-.85-.34-1.22-1.1-1.22h-13.66c-.77,0-1.1,.37-1.1,1.22Zm-245.61-19.25h4.72c.77,0,1.1-.37,1.1-1.22v-6.67h4.29c.86,0,1.16,.44,1.16,1.46v5.21c0,.85,.34,1.22,1.1,1.22h4.75c.77,0,1.1-.37,1.1-1.22v-7.21c0-2.86-1.47-4.66-3.7-4.93,1.29-.61,1.71-1.97,1.71-3.88v-1.57c0-3.37-1.44-5.68-6.03-5.68h-10.2c-.77,0-1.1,.37-1.1,1.22v22.05c0,.85,.34,1.22,1.1,1.22Zm5.82-18.38h2.3c1.07,0,1.35,.68,1.35,1.6v1.16c0,.92-.28,1.6-1.35,1.6h-2.3v-4.36Zm19.06,18.38h14.21c.77,0,1.1-.37,1.1-1.22v-3.98c0-.85-.34-1.22-1.1-1.22h-8.45v-2.93h5.97c.77,0,1.1-.37,1.1-1.23v-3.64c0-.85-.34-1.22-1.1-1.22h-5.97v-2.62h8.45c.77,0,1.1-.37,1.1-1.22v-3.98c0-.85-.34-1.22-1.1-1.22h-14.21c-.77,0-1.1,.37-1.1,1.22v22.05c0,.85,.34,1.22,1.1,1.22Zm21.7,0h4.5c.77,0,1.1-.37,1.1-1.22v-4.76h5.42v4.76c0,.85,.37,1.22,1.19,1.22h4.62c.77,0,1.1-.37,1.1-1.22v-8.98c0-1.36-.37-3.06-1.19-5.44l-2.66-7.72c-.24-.78-.73-1.12-1.53-1.12h-8.24c-.83,0-1.32,.34-1.56,1.12l-2.66,7.72c-.83,2.38-1.19,4.08-1.19,5.44v8.98c0,.85,.34,1.22,1.1,1.22Zm7.35-17.35c.15-.41,.34-.58,.58-.58h.77c.24,0,.43,.17,.58,.58l1.44,5.17h-4.81l1.44-5.17Zm17.59,17.35h15.58c.77,0,1.1-.37,1.1-1.22v-10.72c0-.85-.34-1.23-1.1-1.23h-4.44c-.77,0-1.1,.37-1.1,1.23v5.51h-4.19v-16.84c0-.85-.34-1.22-1.1-1.22h-4.75c-.77,0-1.1,.37-1.1,1.22v22.05c0,.85,.34,1.22,1.1,1.22Zm22.92,0h13.04c.77,0,1.1-.37,1.1-1.22v-4.05c0-.85-.34-1.22-1.1-1.22h-2.97v-11.43h2.97c.77,0,1.1-.37,1.1-1.23v-4.12c0-.85-.34-1.22-1.1-1.22h-13.04c-.77,0-1.1,.37-1.1,1.22v4.12c0,.85,.34,1.23,1.1,1.23h3.03v11.43h-3.03c-.77,0-1.1,.37-1.1,1.22v4.05c0,.85,.34,1.22,1.1,1.22Zm20.44,0h15.19c.77,0,1.1-.37,1.1-1.22v-4.05c0-.85-.34-1.22-1.1-1.22h-7.32l7.1-9.56c.55-.65,.77-1.23,.77-2.14v-5.07c0-.85-.34-1.22-1.1-1.22h-14.08c-.77,0-1.1,.37-1.1,1.22v4.12c0,.85,.34,1.23,1.1,1.23h6.55l-7.44,10.04c-.55,.65-.77,1.23-.77,2.11v4.56c0,.85,.34,1.22,1.1,1.22Zm22.55-6.5c-.77,0-1.1,.37-1.1,1.22v4.05c0,.85,.34,1.22,1.1,1.22h13.04c.77,0,1.1-.37,1.1-1.22v-4.05c0-.85-.34-1.22-1.1-1.22h-2.97v-11.43h2.97c.77,0,1.1-.37,1.1-1.23v-4.12c0-.85-.34-1.22-1.1-1.22h-13.04c-.77,0-1.1,.37-1.1,1.22v4.12c0,.85,.34,1.23,1.1,1.23h3.03v11.43h-3.03Zm33.18,6.5h4.59c.77,0,1.1-.37,1.1-1.22v-22.05c0-.85-.34-1.22-1.1-1.22h-4.59c-.77,0-1.1,.37-1.1,1.22v7.25l-5.94-7.55c-.52-.68-1.01-.92-1.81-.92h-3.18c-.77,0-1.1,.37-1.1,1.22v22.05c0,.85,.34,1.22,1.1,1.22h4.59c.77,0,1.1-.37,1.1-1.22v-11.23l5.24,7.04v4.19c0,.85,.34,1.22,1.1,1.22Zm29.99-1.22v-10.51c0-.85-.34-1.22-1.1-1.22h-4.75c-.77,0-1.1,.37-1.1,1.22v5.31h-2.97c-.95,0-1.41-.51-1.41-1.67v-8.13c0-1.16,.58-1.7,1.87-1.7h6.37c.77,0,1.1-.37,1.1-1.23v-4.12c0-.85-.34-1.22-1.1-1.22h-7.65c-5.14,0-7.53,2.21-7.53,6.94v10.62c0,4.73,2.39,6.94,7.53,6.94h9.64c.77,0,1.1-.37,1.1-1.22Zm19.7-4.36v4.36c0,.85,.31,1.22,1.1,1.22h4.96c.77,0,1.1-.37,1.1-1.22v-4.32l4.65-7.01c.92-1.4,1.16-2.08,1.16-4.19v-6.53c0-.85-.34-1.22-1.1-1.22h-4.56c-.77,0-1.1,.37-1.1,1.22v5.58c0,.48,0,.95-.28,1.43l-1.41,2.45c-.21,.41-.4,.58-.73,.58h-.31c-.34,0-.52-.17-.73-.58l-1.41-2.45c-.28-.48-.28-.95-.28-1.43v-5.58c0-.85-.34-1.22-1.1-1.22h-4.72c-.77,0-1.1,.37-1.1,1.22v6.53c0,2.11,.21,2.79,1.16,4.19l4.68,6.98Zm27.79,6.09c7.65,0,9.49-2.79,9.49-6.94v-11.6c0-4.15-1.84-6.98-9.49-6.98s-9.52,2.82-9.52,6.98v11.6c0,4.15,1.87,6.94,9.52,6.94Zm-2.57-17.32c0-.88,.37-1.57,2.57-1.57s2.57,.68,2.57,1.57v9.15c0,.92-.34,1.6-2.57,1.6s-2.57-.68-2.57-1.6v-9.15Zm27.39,17.32c7.59,0,9.46-2.79,9.46-6.94v-16.84c0-.85-.34-1.22-1.1-1.22h-4.65c-.8,0-1.1,.37-1.1,1.22v15.52c0,.92-.37,1.6-2.54,1.6s-2.51-.68-2.51-1.6v-15.52c0-.85-.34-1.22-1.1-1.22h-4.81c-.77,0-1.1,.37-1.1,1.22v16.84c0,4.15,1.87,6.94,9.46,6.94ZM695.36,59.78h3.18c.51,0,.74-.25,.74-.82v-5.06h3.43v5.06c0,.57,.23,.82,.74,.82h3.18c.51,0,.74-.25,.74-.82v-14.78c0-.57-.23-.82-.74-.82h-3.18c-.51,0-.74,.25-.74,.82v4.95h-3.43v-4.95c0-.57-.23-.82-.74-.82h-3.18c-.51,0-.74,.25-.74,.82v14.78c0,.57,.23,.82,.74,.82Zm19.59-16.42c-.55,0-.88,.23-1.05,.75l-1.79,5.18c-.55,1.6-.8,2.74-.8,3.65v6.02c0,.57,.23,.82,.74,.82h3.02c.51,0,.74-.25,.74-.82v-3.19h3.63v3.19c0,.57,.25,.82,.8,.82h3.1c.51,0,.74-.25,.74-.82v-6.02c0-.91-.25-2.05-.8-3.65l-1.79-5.18c-.16-.52-.49-.75-1.03-.75h-5.52Zm1.07,8.26l.96-3.47c.1-.27,.23-.39,.39-.39h.51c.16,0,.29,.11,.39,.39l.96,3.47h-3.22Zm23.88-.89v-2.92c0-2.65-1.11-4.45-4.84-4.45h-6.28c-.51,0-.74,.25-.74,.82v14.78c0,.57,.23,.82,.74,.82h3.18c.51,0,.74-.25,.74-.82v-3.79h2.36c3.74,0,4.84-1.8,4.84-4.45Zm-7.24,.34v-3.44h1.85c.8,0,.96,.52,.96,1.12v1.21c0,.59-.16,1.12-.96,1.12h-1.85Zm11.55-7.71c-.51,0-.74,.25-.74,.82v14.78c0,.57,.23,.82,.74,.82h3.18c.51,0,.74-.25,.74-.82v-3.79h2.36c3.74,0,4.84-1.8,4.84-4.45v-2.92c0-2.65-1.11-4.45-4.84-4.45h-6.28Zm6.69,5.38v1.21c0,.59-.16,1.12-.96,1.12h-1.85v-3.44h1.85c.8,0,.96,.52,.96,1.12Zm8.41,11.04h8.74c.51,0,.74-.25,.74-.82v-2.71c0-.57-.23-.82-.74-.82h-1.99v-7.66h1.99c.51,0,.74-.25,.74-.82v-2.76c0-.57-.23-.82-.74-.82h-8.74c-.51,0-.74,.25-.74,.82v2.76c0,.57,.23,.82,.74,.82h2.03v7.66h-2.03c-.51,0-.74,.25-.74,.82v2.71c0,.57,.23,.82,.74,.82Zm14.18,0h3.08c.51,0,.74-.25,.74-.82v-7.53l3.51,4.72v2.81c0,.57,.23,.82,.74,.82h3.08c.51,0,.74-.25,.74-.82v-14.78c0-.57-.23-.82-.74-.82h-3.08c-.51,0-.74,.25-.74,.82v4.86l-3.98-5.06c-.35-.46-.68-.62-1.21-.62h-2.13c-.51,0-.74,.25-.74,.82v14.78c0,.57,.23,.82,.74,.82Zm16.89,0h9.52c.51,0,.74-.25,.74-.82v-2.67c0-.57-.23-.82-.74-.82h-5.66v-1.96h4c.51,0,.74-.25,.74-.82v-2.44c0-.57-.23-.82-.74-.82h-4v-1.76h5.66c.51,0,.74-.25,.74-.82v-2.67c0-.57-.23-.82-.74-.82h-9.52c-.51,0-.74,.25-.74,.82v14.78c0,.57,.23,.82,.74,.82Zm14.48,0h6.49c2.65,0,4.25-1.41,4.25-4.01v-2.39c0-2.55-1.27-3.47-3.2-3.79l-3.06-.46c-.35-.05-.55-.32-.55-.73s.21-.68,.55-.68h4.78c.51,0,.74-.25,.74-.82v-2.71c0-.57-.23-.82-.74-.82h-5.75c-2.67,0-4.25,1.41-4.25,4.01v2.39c0,2.55,1.25,3.47,3.18,3.79l3.08,.48c.35,.05,.53,.25,.53,.78,0,.36-.18,.66-.53,.66h-5.52c-.51,0-.74,.25-.74,.82v2.67c0,.57,.23,.82,.74,.82Zm14.67,0h6.49c2.65,0,4.25-1.41,4.25-4.01v-2.39c0-2.55-1.27-3.47-3.2-3.79l-3.06-.46c-.35-.05-.55-.32-.55-.73s.21-.68,.55-.68h4.78c.51,0,.74-.25,.74-.82v-2.71c0-.57-.23-.82-.74-.82h-5.75c-2.67,0-4.25,1.41-4.25,4.01v2.39c0,2.55,1.25,3.47,3.18,3.79l3.08,.48c.35,.05,.53,.25,.53,.78,0,.36-.18,.66-.53,.66h-5.52c-.51,0-.74,.25-.74,.82v2.67c0,.57,.23,.82,.74,.82Zm-124.17-25.66h3.18c.51,0,.74-.25,.74-.82v-3.79h2.36c3.74,0,4.84-1.8,4.84-4.45v-2.92c0-2.65-1.11-4.45-4.84-4.45h-6.28c-.51,0-.74,.25-.74,.82v14.78c0,.57,.23,.82,.74,.82Zm3.88-12.16h1.85c.8,0,.96,.52,.96,1.12v1.21c0,.59-.16,1.12-.96,1.12h-1.85v-3.44Zm11.55,12.16h9.52c.51,0,.74-.25,.74-.82v-2.67c0-.57-.23-.82-.74-.82h-5.66v-1.96h4c.51,0,.74-.25,.74-.82v-2.44c0-.57-.23-.82-.74-.82h-4v-1.76h5.66c.51,0,.74-.25,.74-.82v-2.67c0-.57-.23-.82-.74-.82h-9.52c-.51,0-.74,.25-.74,.82v14.78c0,.57,.23,.82,.74,.82Zm14.55,0h3.02c.51,0,.74-.25,.74-.82v-3.19h3.63v3.19c0,.57,.25,.82,.8,.82h3.1c.51,0,.74-.25,.74-.82v-6.02c0-.91-.25-2.05-.8-3.65l-1.79-5.18c-.16-.52-.49-.75-1.03-.75h-5.52c-.55,0-.88,.23-1.05,.75l-1.79,5.18c-.55,1.6-.8,2.74-.8,3.65v6.02c0,.57,.23,.82,.74,.82Zm4.93-11.63c.1-.27,.23-.39,.39-.39h.51c.16,0,.29,.11,.39,.39l.96,3.47h-3.22l.96-3.47Zm11.8,11.63h3.18c.51,0,.74-.25,.74-.82v-5.22h2.71c.43,0,.66,.27,.66,.78v4.45c0,.57,.23,.82,.74,.82h3.16c.51,0,.74-.25,.74-.82v-6.43c0-1.82-.99-3.01-2.52-3.1l2.09-5.31c.18-.48,.02-.75-.45-.75h-3.16c-.53,0-.82,.21-1.03,.75l-2.11,5.31h-.82v-5.24c0-.57-.23-.82-.74-.82h-3.18c-.51,0-.74,.25-.74,.82v14.78c0,.57,.23,.82,.74,.82Z"/><path class="cls-4" d="M449.82,527.44c69.24,0,125.37,7.02,125.37,15.68s-56.13,15.68-125.37,15.68-125.37-7.02-125.37-15.68,56.13-15.68,125.37-15.68Z"/><path class="cls-2" d="M685.77,35.62h-26.64v-3h26.64v3Zm-59.64,0h-33v-3h33v3Zm-66,0h-33v-3h33v3Zm-66,0h-33v-3h33v3Zm-66,0h-33v-3h33v3Zm-66,0h-33v-3h33v3Zm-66,0h-33v-3h33v3Zm-66,0h-33v-3h33v3Zm-66,0h-33v-3h33v3Zm-66,0h-33v-3h33v3Z"/><path class="cls-2" d="M685.77,400.89h-26.64v-3h26.64v3Zm-59.64,0h-33v-3h33v3Zm-66,0h-33v-3h33v3Zm-66,0h-33v-3h33v3Zm-66,0h-33v-3h33v3Zm-66,0h-33v-3h33v3Zm-66,0h-33v-3h33v3Zm-66,0h-33v-3h33v3Zm-66,0h-33v-3h33v3Zm-66,0h-33v-3h33v3Z"/></g></g></svg>