<?xml version="1.0" encoding="utf-8"?>
<!-- Generator: Adobe Illustrator 26.3.1, SVG Export Plug-In . SVG Version: 6.00 Build 0)  -->
<svg version="1.1" id="Layer_2_00000150060620680214956740000001274538634831142025_"
	 xmlns="http://www.w3.org/2000/svg" xmlns:xlink="http://www.w3.org/1999/xlink" x="0px" y="0px" viewBox="0 0 868.8 627.1"
	 style="enable-background:new 0 0 868.8 627.1;" xml:space="preserve">
<style type="text/css">
	.st0{fill:#FAD378;}
	.st1{fill:#FFB267;}
	.st2{fill:#4A2B4A;}
	.st3{fill:none;stroke:#4A2B4A;stroke-width:3;stroke-miterlimit:10;}
</style>
<g id="Layer_1-2">
	<g>
		<path class="st0" d="M65.1,289.7c0,0,22.3-276.4,160.9-247.6S685.8,153,685.8,153v430.5H65.1V289.7z"/>
		<path class="st1" d="M65.1,393.1c0,0,67.3-279,136.3-279s147.5,429,248.1,429s81.4-161.3,189-161.3h47.2v202.7H67.8L65.1,393.1
			L65.1,393.1z"/>
		<path class="st2" d="M68,0h-5.7v584.5h658.3v-5.7H68V0z M29.2,393.1H1.5c-1.1,0-1.5,0.4-1.5,1.4v6c0,1,0.5,1.4,1.5,1.4h9.3v6.4
			H1.5c-1.1,0-1.5,0.4-1.5,1.4v6c0,1,0.5,1.4,1.5,1.4h27.7c1.1,0,1.5-0.4,1.5-1.4v-6c0-1-0.5-1.4-1.5-1.4h-9.5v-6.4h9.5
			c1.1,0,1.5-0.4,1.5-1.4v-6C30.8,393.6,30.3,393.1,29.2,393.1z M29.2,361.8H18c-1.7,0-3.9,0.5-6.8,1.5l-9.7,3.4
			c-1,0.3-1.4,0.9-1.4,1.9v10.4c0,1,0.4,1.7,1.4,2l9.7,3.4c3,1,5.1,1.5,6.8,1.5h11.3c1.1,0,1.5-0.4,1.5-1.4v-5.7
			c0-1-0.5-1.4-1.5-1.4h-6v-6.8h6c1.1,0,1.5-0.5,1.5-1.5v-5.8C30.8,362.2,30.3,361.8,29.2,361.8L29.2,361.8z M15.5,376.9L9,375.1
			c-0.5-0.2-0.7-0.4-0.7-0.7v-1c0-0.3,0.2-0.5,0.7-0.7l6.5-1.8V376.9z M29.2,345.6h-7.1v-4.4c0-7-3.4-9.1-8.3-9.1H8.3
			c-5,0-8.3,2.1-8.3,9.1V353c0,1,0.5,1.4,1.5,1.4h27.7c1.1,0,1.5-0.4,1.5-1.4v-6C30.8,346,30.3,345.6,29.2,345.6L29.2,345.6z
			 M14.4,345.7H8v-3.5c0-1.5,1-1.8,2.1-1.8h2.3c1.1,0,2.1,0.3,2.1,1.8L14.4,345.7L14.4,345.7z M29.2,316.7h-7.1v-4.4
			c0-7-3.4-9.1-8.3-9.1H8.3c-5,0-8.3,2.1-8.3,9.1V324c0,1,0.5,1.4,1.5,1.4h27.7c1.1,0,1.5-0.4,1.5-1.4v-6
			C30.8,317.1,30.3,316.7,29.2,316.7L29.2,316.7z M14.4,316.8H8v-3.5c0-1.5,1-1.8,2.1-1.8h2.3c1.1,0,2.1,0.3,2.1,1.8L14.4,316.8
			L14.4,316.8z M29.2,277.9h-5.1c-1.1,0-1.5,0.4-1.5,1.4v3.7H8.2v-3.7c0-1-0.5-1.4-1.5-1.4H1.5c-1.1,0-1.5,0.4-1.5,1.4v16.4
			c0,1,0.5,1.4,1.5,1.4h5.2c1.1,0,1.5-0.4,1.5-1.4v-3.8h14.4v3.8c0,1,0.5,1.4,1.5,1.4h5.1c1.1,0,1.5-0.4,1.5-1.4v-16.4
			C30.8,278.3,30.3,277.9,29.2,277.9L29.2,277.9z M29.2,246.8H1.5c-1.1,0-1.5,0.4-1.5,1.4v5.8c0,1,0.5,1.4,1.5,1.4h9.1l-9.5,7.5
			c-0.9,0.6-1.1,1.3-1.1,2.3v4c0,1,0.5,1.4,1.5,1.4h27.7c1.1,0,1.5-0.4,1.5-1.4v-5.8c0-1-0.5-1.4-1.5-1.4H15.1l8.8-6.6h5.3
			c1.1,0,1.5-0.4,1.5-1.4v-5.8C30.8,247.2,30.3,246.8,29.2,246.8L29.2,246.8z M29.2,218.2h-5c-1.1,0-1.5,0.4-1.5,1.4v10.6H19v-7.5
			c0-1-0.5-1.4-1.5-1.4h-4.6c-1.1,0-1.5,0.4-1.5,1.4v7.5H8.1v-10.6c0-1-0.5-1.4-1.5-1.4h-5c-1.1,0-1.5,0.4-1.5,1.4v17.9
			c0,1,0.5,1.4,1.5,1.4h27.7c1.1,0,1.5-0.4,1.5-1.4v-17.9C30.8,218.6,30.3,218.2,29.2,218.2z M23.2,190.1h-4.5c-4.8,0-6.5,2.4-7.1,6
			l-0.9,5.7c-0.1,0.6-0.6,1-1.4,1s-1.3-0.4-1.3-1v-9c0-1-0.5-1.4-1.5-1.4H1.5c-1.1,0-1.5,0.4-1.5,1.4v10.8c0,5,2.7,8,7.5,8H12
			c4.8,0,6.5-2.4,7.1-6l0.9-5.8c0.1-0.6,0.5-1,1.5-1c0.7,0,1.2,0.4,1.2,1v10.4c0,1,0.5,1.4,1.5,1.4h5c1.1,0,1.5-0.4,1.5-1.4v-12.2
			C30.8,193.1,28.1,190.1,23.2,190.1z M23.2,162.6h-4.5c-4.8,0-6.5,2.4-7.1,6l-0.9,5.7c-0.1,0.6-0.6,1-1.4,1s-1.3-0.4-1.3-1v-9
			c0-1-0.5-1.4-1.5-1.4H1.5c-1.1,0-1.5,0.4-1.5,1.4v10.8c0,5,2.7,8,7.5,8H12c4.8,0,6.5-2.4,7.1-6l0.9-5.8c0.1-0.6,0.5-1,1.5-1
			c0.7,0,1.2,0.4,1.2,1v10.4c0,1,0.5,1.4,1.5,1.4h5c1.1,0,1.5-0.4,1.5-1.4v-12.2C30.8,165.6,28.1,162.6,23.2,162.6z M338.1,596.3
			h-20.3c-1,0-1.4,0.5-1.4,1.5v5.2c0,1.1,0.4,1.5,1.4,1.5h5.7v21c0,1.1,0.4,1.5,1.4,1.5h6.2c1,0,1.4-0.5,1.4-1.5v-21h5.7
			c1,0,1.4-0.5,1.4-1.5v-5.2C339.5,596.8,339.1,596.3,338.1,596.3L338.1,596.3z M363.1,596.3h-16.4c-1,0-1.4,0.5-1.4,1.5v5.2
			c0,1.1,0.4,1.5,1.4,1.5h3.8V619h-3.8c-1,0-1.4,0.5-1.4,1.5v5.1c0,1.1,0.4,1.5,1.4,1.5h16.4c1,0,1.4-0.5,1.4-1.5v-5.1
			c0-1.1-0.4-1.5-1.4-1.5h-3.7v-14.4h3.7c1,0,1.4-0.5,1.4-1.5v-5.2C364.5,596.8,364.1,596.3,363.1,596.3L363.1,596.3z M397.9,596.3
			h-6.2c-0.8,0-1.3,0.3-1.8,1.3l-3.4,7c-0.3,0.5-0.4,0.7-0.7,0.7h-0.4c-0.3,0-0.4-0.2-0.7-0.7l-3.5-7c-0.5-0.9-1-1.3-1.8-1.3h-6.2
			c-1,0-1.4,0.5-1.4,1.5v27.7c0,1.1,0.4,1.5,1.4,1.5h5.7c1,0,1.4-0.5,1.4-1.5v-15l2.3,4.7c0.5,1,1,1.4,2,1.4h1.5c1,0,1.6-0.4,2-1.4
			l2.3-4.7v15c0,1.1,0.4,1.5,1.4,1.5h5.9c1,0,1.4-0.5,1.4-1.5v-27.7C399.3,596.8,398.9,596.3,397.9,596.3L397.9,596.3z M426.5,596.3
			h-17.9c-1,0-1.4,0.5-1.4,1.5v27.7c0,1.1,0.4,1.5,1.4,1.5h17.9c1,0,1.4-0.5,1.4-1.5v-5c0-1.1-0.4-1.5-1.4-1.5h-10.6v-3.7h7.5
			c1,0,1.4-0.5,1.4-1.5v-4.6c0-1.1-0.4-1.5-1.4-1.5h-7.5v-3.3h10.6c1,0,1.4-0.5,1.4-1.5v-5C427.9,596.8,427.5,596.4,426.5,596.3
			L426.5,596.3z M703.2,403.2h3.2c0.5,0,0.7-0.2,0.7-0.8v-14.8c0-0.6-0.2-0.8-0.7-0.8h-3.2c-0.5,0-0.7,0.2-0.7,0.8v5H699v-5
			c0-0.6-0.2-0.8-0.7-0.8h-3.2c-0.5,0-0.7,0.2-0.7,0.8v14.8c0,0.6,0.2,0.8,0.7,0.8h3.2c0.5,0,0.7-0.2,0.7-0.8v-5.1h3.4v5.1
			C702.4,402.9,702.7,403.2,703.2,403.2z M717.5,386.4c-5.1,0-6.4,1.9-6.4,4.7v7.8c0,2.8,1.2,4.6,6.4,4.6s6.4-1.9,6.4-4.6v-7.8
			C723.9,388.3,722.6,386.4,717.5,386.4z M719.2,398c0,0.6-0.2,1.1-1.7,1.1s-1.7-0.5-1.7-1.1v-6.1c0-0.6,0.2-1,1.7-1s1.7,0.5,1.7,1
			V398z M741.8,386.7h-3.3c-0.4,0-0.7,0.2-0.9,0.7l-1.8,3.7c-0.1,0.3-0.2,0.4-0.4,0.4h-0.2c-0.2,0-0.2-0.1-0.4-0.4l-1.8-3.7
			c-0.2-0.5-0.5-0.7-0.9-0.7h-3.3c-0.5,0-0.7,0.2-0.7,0.8v14.8c0,0.6,0.2,0.8,0.7,0.8h3.1c0.5,0,0.7-0.2,0.7-0.8v-8l1.2,2.5
			c0.2,0.5,0.5,0.7,1.1,0.7h0.8c0.5,0,0.8-0.2,1.1-0.7l1.2-2.5v8c0,0.6,0.2,0.8,0.7,0.8h3.2c0.5,0,0.7-0.2,0.7-0.8v-14.8
			C742.5,387,742.3,386.7,741.8,386.7L741.8,386.7z M757,386.7h-9.5c-0.5,0-0.7,0.2-0.7,0.8v14.8c0,0.6,0.2,0.8,0.7,0.8h9.5
			c0.5,0,0.7-0.2,0.7-0.8v-2.7c0-0.6-0.2-0.8-0.7-0.8h-5.7v-2h4c0.5,0,0.7-0.2,0.7-0.8v-2.4c0-0.6-0.2-0.8-0.7-0.8h-4V391h5.7
			c0.5,0,0.7-0.2,0.7-0.8v-2.7C757.8,387,757.5,386.7,757,386.7L757,386.7z M767.7,386.4c-5.1,0-6.4,1.9-6.4,4.7v7.8
			c0,2.8,1.2,4.6,6.4,4.6s6.4-1.9,6.4-4.6v-7.8C774,388.3,772.8,386.4,767.7,386.4z M769.4,398c0,0.6-0.2,1.1-1.7,1.1
			s-1.7-0.5-1.7-1.1v-6.1c0-0.6,0.2-1,1.7-1s1.7,0.5,1.7,1V398z M786,393l-3.1-0.5c-0.3,0-0.5-0.3-0.5-0.7s0.2-0.7,0.5-0.7h4.8
			c0.5,0,0.7-0.2,0.7-0.8v-2.7c0-0.6-0.2-0.8-0.7-0.8h-5.8c-2.7,0-4.2,1.4-4.2,4v2.4c0,2.5,1.2,3.5,3.2,3.8l3.1,0.5
			c0.3,0,0.5,0.2,0.5,0.8c0,0.4-0.2,0.7-0.5,0.7h-5.5c-0.5,0-0.7,0.2-0.7,0.8v2.7c0,0.6,0.2,0.8,0.7,0.8h6.5c2.7,0,4.2-1.4,4.2-4
			v-2.4C789.2,394.2,787.9,393.3,786,393L786,393z M803.4,386.7h-10.8c-0.5,0-0.7,0.2-0.7,0.8v2.8c0,0.6,0.2,0.8,0.7,0.8h3v11.2
			c0,0.6,0.2,0.8,0.7,0.8h3.3c0.5,0,0.7-0.2,0.7-0.8v-11.2h3c0.5,0,0.7-0.2,0.7-0.8v-2.8C804.1,387,803.9,386.7,803.4,386.7z
			 M816.6,387.5c-0.2-0.5-0.5-0.8-1-0.8H810c-0.5,0-0.9,0.2-1,0.8l-1.8,5.2c-0.5,1.6-0.8,2.7-0.8,3.6v6c0,0.6,0.2,0.8,0.7,0.8h3
			c0.5,0,0.7-0.2,0.7-0.8v-3.2h3.6v3.2c0,0.6,0.2,0.8,0.8,0.8h3.1c0.5,0,0.7-0.2,0.7-0.8v-6c0-0.9-0.2-2-0.8-3.6L816.6,387.5
			L816.6,387.5z M811.1,395l1-3.5c0.1-0.3,0.2-0.4,0.4-0.4h0.5c0.2,0,0.3,0.1,0.4,0.4l1,3.5H811.1L811.1,395z M831,393l-3.1-0.5
			c-0.3,0-0.5-0.3-0.5-0.7s0.2-0.7,0.5-0.7h4.8c0.5,0,0.7-0.2,0.7-0.8v-2.7c0-0.6-0.2-0.8-0.7-0.8H827c-2.7,0-4.2,1.4-4.2,4v2.4
			c0,2.5,1.2,3.5,3.2,3.8l3.1,0.5c0.3,0,0.5,0.2,0.5,0.8c0,0.4-0.2,0.7-0.5,0.7h-5.5c-0.5,0-0.7,0.2-0.7,0.8v2.7
			c0,0.6,0.2,0.8,0.7,0.8h6.5c2.7,0,4.2-1.4,4.2-4v-2.4C834.2,394.2,832.9,393.3,831,393L831,393z M847,386.7h-8.7
			c-0.5,0-0.7,0.2-0.7,0.8v2.8c0,0.6,0.2,0.8,0.7,0.8h2v7.7h-2c-0.5,0-0.7,0.2-0.7,0.8v2.7c0,0.6,0.2,0.8,0.7,0.8h8.7
			c0.5,0,0.7-0.2,0.7-0.8v-2.7c0-0.6-0.2-0.8-0.7-0.8h-2v-7.7h2c0.5,0,0.7-0.2,0.7-0.8v-2.8C847.8,387,847.5,386.7,847,386.7z
			 M859.6,393l-3.1-0.5c-0.3,0-0.5-0.3-0.5-0.7s0.2-0.7,0.5-0.7h4.8c0.5,0,0.7-0.2,0.7-0.8v-2.7c0-0.6-0.2-0.8-0.7-0.8h-5.8
			c-2.7,0-4.2,1.4-4.2,4v2.4c0,2.5,1.2,3.5,3.2,3.8l3.1,0.5c0.3,0,0.5,0.2,0.5,0.8c0,0.4-0.2,0.7-0.5,0.7h-5.5
			c-0.5,0-0.7,0.2-0.7,0.8v2.7c0,0.6,0.2,0.8,0.7,0.8h6.5c2.7,0,4.2-1.4,4.2-4v-2.4C862.8,394.2,861.6,393.3,859.6,393L859.6,393z
			 M699,361.9c0-0.6-0.2-0.8-0.7-0.8h-3.2c-0.5,0-0.7,0.2-0.7,0.8v14.8c0,0.6,0.2,0.8,0.7,0.8h3.2c0.5,0,0.7-0.2,0.7-0.8v-5.1h3.4
			v5.1c0,0.6,0.2,0.8,0.7,0.8h3.2c0.5,0,0.7-0.2,0.7-0.8v-14.8c0-0.6-0.2-0.8-0.7-0.8h-3.2c-0.5,0-0.7,0.2-0.7,0.8v5H699V361.9z
			 M720,377.5h3.1c0.5,0,0.7-0.2,0.7-0.8v-6c0-0.9-0.2-2-0.8-3.6l-1.8-5.2c-0.2-0.5-0.5-0.8-1-0.8h-5.5c-0.5,0-0.9,0.2-1,0.8
			l-1.8,5.2c-0.5,1.6-0.8,2.7-0.8,3.6v6c0,0.6,0.2,0.8,0.7,0.8h3c0.5,0,0.7-0.2,0.7-0.8v-3.2h3.6v3.2
			C719.1,377.2,719.4,377.5,720,377.5L720,377.5z M715.7,369.3l1-3.5c0.1-0.3,0.2-0.4,0.4-0.4h0.5c0.2,0,0.3,0.1,0.4,0.4l1,3.5
			H715.7L715.7,369.3z M728.5,377.5h3.2c0.5,0,0.7-0.2,0.7-0.8v-3.8h2.4c3.7,0,4.8-1.8,4.8-4.5v-2.9c0-2.6-1.1-4.5-4.8-4.5h-6.3
			c-0.5,0-0.7,0.2-0.7,0.8v14.8C727.7,377.2,728,377.5,728.5,377.5L728.5,377.5z M732.4,365.3h1.8c0.8,0,1,0.5,1,1.1v1.2
			c0,0.6-0.2,1.1-1,1.1h-1.8V365.3L732.4,365.3z M747.8,376.7v-3.8h2.4c3.7,0,4.8-1.8,4.8-4.5v-2.9c0-2.6-1.1-4.5-4.8-4.5h-6.3
			c-0.5,0-0.7,0.2-0.7,0.8v14.8c0,0.6,0.2,0.8,0.7,0.8h3.2C747.6,377.5,747.8,377.2,747.8,376.7L747.8,376.7z M747.8,365.3h1.8
			c0.8,0,1,0.5,1,1.1v1.2c0,0.6-0.2,1.1-1,1.1h-1.8V365.3L747.8,365.3z M768.5,376.7V374c0-0.6-0.2-0.8-0.7-0.8h-2v-7.7h2
			c0.5,0,0.7-0.2,0.7-0.8v-2.8c0-0.6-0.2-0.8-0.7-0.8H759c-0.5,0-0.7,0.2-0.7,0.8v2.8c0,0.6,0.2,0.8,0.7,0.8h2v7.7h-2
			c-0.5,0-0.7,0.2-0.7,0.8v2.7c0,0.6,0.2,0.8,0.7,0.8h8.7C768.3,377.5,768.5,377.2,768.5,376.7z M780.5,376.7c0,0.6,0.2,0.8,0.7,0.8
			h3.1c0.5,0,0.7-0.2,0.7-0.8v-14.8c0-0.6-0.2-0.8-0.7-0.8h-3.1c-0.5,0-0.7,0.2-0.7,0.8v4.9l-4-5.1c-0.3-0.5-0.7-0.6-1.2-0.6h-2.1
			c-0.5,0-0.7,0.2-0.7,0.8v14.8c0,0.6,0.2,0.8,0.7,0.8h3.1c0.5,0,0.7-0.2,0.7-0.8v-7.5l3.5,4.7L780.5,376.7L780.5,376.7z
			 M800.3,376.7V374c0-0.6-0.2-0.8-0.7-0.8h-5.7v-2h4c0.5,0,0.7-0.2,0.7-0.8V368c0-0.6-0.2-0.8-0.7-0.8h-4v-1.8h5.7
			c0.5,0,0.7-0.2,0.7-0.8v-2.7c0-0.6-0.2-0.8-0.7-0.8h-9.5c-0.5,0-0.7,0.2-0.7,0.8v14.8c0,0.6,0.2,0.8,0.7,0.8h9.5
			C800.1,377.5,800.3,377.2,800.3,376.7L800.3,376.7z M815.3,373.5v-2.4c0-2.5-1.3-3.5-3.2-3.8l-3.1-0.5c-0.3,0-0.5-0.3-0.5-0.7
			s0.2-0.7,0.5-0.7h4.8c0.5,0,0.7-0.2,0.7-0.8v-2.7c0-0.6-0.2-0.8-0.7-0.8h-5.8c-2.7,0-4.2,1.4-4.2,4v2.4c0,2.5,1.2,3.5,3.2,3.8
			l3.1,0.5c0.3,0,0.5,0.2,0.5,0.8c0,0.4-0.2,0.7-0.5,0.7h-5.5c-0.5,0-0.7,0.2-0.7,0.8v2.7c0,0.6,0.2,0.8,0.7,0.8h6.5
			C813.7,377.5,815.3,376.1,815.3,373.5L815.3,373.5z M830,373.5v-2.4c0-2.5-1.3-3.5-3.2-3.8l-3.1-0.5c-0.3,0-0.5-0.3-0.5-0.7
			s0.2-0.7,0.5-0.7h4.8c0.5,0,0.7-0.2,0.7-0.8v-2.7c0-0.6-0.2-0.8-0.7-0.8h-5.8c-2.7,0-4.2,1.4-4.2,4v2.4c0,2.5,1.2,3.5,3.2,3.8
			l3.1,0.5c0.3,0,0.5,0.2,0.5,0.8c0,0.4-0.2,0.7-0.5,0.7h-5.5c-0.5,0-0.7,0.2-0.7,0.8v2.7c0,0.6,0.2,0.8,0.7,0.8h6.5
			C828.4,377.5,830,376.1,830,373.5L830,373.5z M115.7,308.5h4.9c0.8,0,1.2-0.4,1.2-1.3v-7h4.5c0.9,0,1.2,0.5,1.2,1.5v5.5
			c0,0.9,0.3,1.3,1.2,1.3h5c0.8,0,1.2-0.4,1.2-1.3v-7.6c0-3-1.5-4.9-3.9-5.2c1.4-0.6,1.8-2.1,1.8-4.1v-1.6c0-3.5-1.5-6-6.3-6h-10.7
			c-0.8,0-1.2,0.4-1.2,1.3v23.1C114.5,308.1,114.9,308.5,115.7,308.5L115.7,308.5z M121.8,289.2h2.4c1.1,0,1.4,0.7,1.4,1.7v1.2
			c0,1-0.3,1.7-1.4,1.7h-2.4V289.2L121.8,289.2z M141.8,308.5h14.9c0.8,0,1.2-0.4,1.2-1.3v-4.2c0-0.9-0.4-1.3-1.2-1.3h-8.9v-3.1h6.3
			c0.8,0,1.2-0.4,1.2-1.3v-3.8c0-0.9-0.4-1.3-1.2-1.3h-6.3v-2.8h8.9c0.8,0,1.2-0.4,1.2-1.3v-4.2c0-0.9-0.4-1.3-1.2-1.3h-14.9
			c-0.8,0-1.2,0.4-1.2,1.3v23.1C140.6,308.1,141,308.5,141.8,308.5L141.8,308.5z M171.3,308.5h10.1c0.8,0,1.2-0.4,1.2-1.3v-11
			c0-0.9-0.4-1.3-1.2-1.3h-5c-0.8,0-1.2,0.4-1.2,1.3v5.6h-3.1c-1,0-1.5-0.5-1.5-1.8v-8.5c0-1.2,0.6-1.8,2-1.8h6.7
			c0.8,0,1.2-0.4,1.2-1.3v-4.3c0-0.9-0.4-1.3-1.2-1.3h-8c-5.4,0-7.9,2.3-7.9,7.3v11.1C163.4,306.2,165.9,308.5,171.3,308.5
			L171.3,308.5z M198.5,309.1c8,0,9.9-2.9,9.9-7.3v-17.7c0-0.9-0.4-1.3-1.2-1.3h-4.9c-0.8,0-1.2,0.4-1.2,1.3v16.3
			c0,1-0.4,1.7-2.7,1.7s-2.6-0.7-2.6-1.7v-16.3c0-0.9-0.4-1.3-1.2-1.3h-5.1c-0.8,0-1.2,0.4-1.2,1.3v17.7
			C188.6,306.1,190.5,309.1,198.5,309.1L198.5,309.1z M216.1,308.5h16.4c0.8,0,1.2-0.4,1.2-1.3V296c0-0.9-0.4-1.3-1.2-1.3h-4.7
			c-0.8,0-1.2,0.4-1.2,1.3v5.8h-4.4v-17.7c0-0.9-0.4-1.3-1.2-1.3h-5c-0.8,0-1.2,0.4-1.2,1.3v23.1C215,308.1,215.3,308.5,216.1,308.5
			L216.1,308.5z M240.3,308.5h4.7c0.8,0,1.2-0.4,1.2-1.3v-5h5.7v5c0,0.9,0.4,1.3,1.2,1.3h4.9c0.8,0,1.2-0.4,1.2-1.3v-9.4
			c0-1.4-0.4-3.2-1.2-5.7l-2.8-8.1c-0.3-0.8-0.8-1.2-1.6-1.2h-8.6c-0.9,0-1.4,0.4-1.6,1.2l-2.8,8.1c-0.9,2.5-1.2,4.3-1.2,5.7v9.4
			C239.1,308.1,239.5,308.5,240.3,308.5L240.3,308.5z M248,290.3c0.2-0.4,0.4-0.6,0.6-0.6h0.8c0.3,0,0.4,0.2,0.6,0.6l1.5,5.4h-5.1
			L248,290.3L248,290.3z M266.5,308.5h5c0.8,0,1.2-0.4,1.2-1.3v-7h4.5c0.9,0,1.2,0.5,1.2,1.5v5.5c0,0.9,0.4,1.3,1.2,1.3h5
			c0.8,0,1.2-0.4,1.2-1.3v-7.6c0-3-1.5-4.9-3.9-5.2c1.4-0.6,1.8-2.1,1.8-4.1v-1.6c0-3.5-1.5-6-6.3-6h-10.7c-0.8,0-1.2,0.4-1.2,1.3
			v23.1C265.3,308.1,265.7,308.5,266.5,308.5L266.5,308.5z M272.6,289.2h2.4c1.1,0,1.4,0.7,1.4,1.7v1.2c0,1-0.3,1.7-1.4,1.7h-2.4
			V289.2L272.6,289.2z M157.5,320.1c0-0.9-0.4-1.3-1.2-1.3h-4.9c-0.8,0-1.2,0.4-1.2,1.3v13.8c0,1.5,0,2.7,0.6,4.4l1.6,4.9
			c0.2,0.8,0.7,1.3,1.4,1.3h4.2c0.7,0,1.2-0.4,1.4-1.1l1.5-5.8c0.1-0.5,0.3-0.6,0.6-0.6h0.3c0.3,0,0.4,0.1,0.6,0.6l1.5,5.8
			c0.2,0.8,0.8,1.1,1.5,1.1h4.3c0.7,0,1.1-0.6,1.3-1.3l1.6-4.9c0.6-1.8,0.6-2.9,0.6-4.4v-13.9c0-0.9-0.4-1.3-1.2-1.3h-4.8
			c-0.8,0-1.2,0.4-1.2,1.3v13.1l-1.9-4.5c-0.4-0.8-0.9-1.1-1.7-1.1h-1.4c-0.8,0-1.4,0.3-1.7,1.1l-1.9,4.5L157.5,320.1L157.5,320.1z
			 M195.5,325.6c0.8,0,1.2-0.4,1.2-1.3v-4.2c0-0.9-0.4-1.3-1.2-1.3h-14.9c-0.8,0-1.2,0.4-1.2,1.3v23.1c0,0.9,0.4,1.3,1.2,1.3h14.9
			c0.8,0,1.2-0.4,1.2-1.3v-4.2c0-0.9-0.4-1.3-1.2-1.3h-8.9v-3.1h6.3c0.8,0,1.2-0.4,1.2-1.3v-3.8c0-0.9-0.4-1.3-1.2-1.3h-6.3v-2.8
			L195.5,325.6L195.5,325.6z M218.8,325.6c0.8,0,1.2-0.4,1.2-1.3v-4.2c0-0.9-0.4-1.3-1.2-1.3h-14.9c-0.8,0-1.2,0.4-1.2,1.3v23.1
			c0,0.9,0.4,1.3,1.2,1.3h14.9c0.8,0,1.2-0.4,1.2-1.3v-4.2c0-0.9-0.4-1.3-1.2-1.3h-8.9v-3.1h6.3c0.8,0,1.2-0.4,1.2-1.3v-3.8
			c0-0.9-0.4-1.3-1.2-1.3h-6.3v-2.8L218.8,325.6L218.8,325.6z M226,320.1v23.1c0,0.9,0.4,1.3,1.2,1.3H238c5.4,0,7.9-2.3,7.9-7.3
			v-11.1c0-5-2.5-7.3-7.9-7.3h-10.8C226.4,318.8,226,319.2,226,320.1z M233.3,325.6h3.8c1,0,1.5,0.5,1.5,1.7v8.7
			c0,1.2-0.5,1.8-1.5,1.8h-3.8V325.6z M430.4,299.2c0.2,0.8,0.7,1.3,1.4,1.3h4.2c0.7,0,1.2-0.4,1.4-1.1l1.5-5.8
			c0.1-0.5,0.3-0.6,0.6-0.6h0.3c0.3,0,0.5,0.1,0.6,0.6l1.5,5.8c0.2,0.8,0.8,1.1,1.5,1.1h4.3c0.7,0,1.1-0.6,1.3-1.3l1.6-4.9
			c0.6-1.8,0.6-2.9,0.6-4.4v-13.9c0-0.9-0.4-1.3-1.2-1.3h-4.8c-0.8,0-1.2,0.4-1.2,1.3v13.1l-1.9-4.5c-0.4-0.8-0.9-1.1-1.7-1.1h-1.4
			c-0.8,0-1.4,0.3-1.7,1.1l-1.9,4.5v-13.1c0-0.9-0.4-1.3-1.2-1.3h-5c-0.8,0-1.2,0.4-1.2,1.3v13.8c0,1.5,0,2.7,0.6,4.4L430.4,299.2
			L430.4,299.2z M474.7,299.2v-4.2c0-0.9-0.4-1.3-1.2-1.3h-8.9v-3.1h6.3c0.8,0,1.2-0.4,1.2-1.3v-3.8c0-0.9-0.4-1.3-1.2-1.3h-6.3
			v-2.8h8.9c0.8,0,1.2-0.4,1.2-1.3v-4.2c0-0.9-0.4-1.3-1.2-1.3h-14.9c-0.8,0-1.2,0.4-1.2,1.3v23.1c0,0.9,0.4,1.3,1.2,1.3h14.9
			C474.3,300.5,474.7,300.1,474.7,299.2L474.7,299.2z M496.8,281.6c0.8,0,1.2-0.4,1.2-1.3v-4.2c0-0.9-0.4-1.3-1.2-1.3h-14.9
			c-0.8,0-1.2,0.4-1.2,1.3v23.1c0,0.9,0.4,1.3,1.2,1.3h14.9c0.8,0,1.2-0.4,1.2-1.3v-4.2c0-0.9-0.4-1.3-1.2-1.3h-8.9v-3.1h6.3
			c0.8,0,1.2-0.4,1.2-1.3v-3.8c0-0.9-0.4-1.3-1.2-1.3h-6.3v-2.8L496.8,281.6L496.8,281.6z M504,276.1v23.1c0,0.9,0.4,1.3,1.2,1.3
			H516c5.4,0,7.9-2.3,7.9-7.3v-11.1c0-5-2.5-7.3-7.9-7.3h-10.8C504.4,274.8,504,275.2,504,276.1z M511.3,281.6h3.8
			c1,0,1.5,0.5,1.5,1.7v8.7c0,1.2-0.5,1.8-1.5,1.8h-3.8L511.3,281.6L511.3,281.6z M449,263.5c8,0,10-2.9,10-7.3V244
			c0-4.4-1.9-7.3-10-7.3s-10,3-10,7.3v12.2C439,260.5,441,263.5,449,263.5z M446.3,245.3c0-0.9,0.4-1.6,2.7-1.6s2.7,0.7,2.7,1.6v9.6
			c0,1-0.4,1.7-2.7,1.7s-2.7-0.7-2.7-1.7V245.3L446.3,245.3z M475.1,263.5c8,0,9.9-2.9,9.9-7.3v-17.7c0-0.9-0.4-1.3-1.2-1.3H479
			c-0.8,0-1.2,0.4-1.2,1.3v16.3c0,1-0.4,1.7-2.7,1.7s-2.6-0.7-2.6-1.7v-16.3c0-0.9-0.4-1.3-1.2-1.3h-5c-0.8,0-1.2,0.4-1.2,1.3v17.7
			C465.1,260.5,467.1,263.5,475.1,263.5L475.1,263.5z M492.7,262.9h5c0.8,0,1.2-0.4,1.2-1.3v-7h4.5c0.9,0,1.2,0.5,1.2,1.5v5.5
			c0,0.9,0.4,1.3,1.2,1.3h5c0.8,0,1.2-0.4,1.2-1.3v-7.6c0-3-1.5-4.9-3.9-5.2c1.4-0.6,1.8-2.1,1.8-4.1v-1.6c0-3.5-1.5-6-6.3-6h-10.7
			c-0.8,0-1.2,0.4-1.2,1.3v23.1C491.5,262.5,491.9,262.9,492.7,262.9L492.7,262.9z M498.8,243.6h2.4c1.1,0,1.4,0.7,1.4,1.7v1.2
			c0,1-0.3,1.7-1.4,1.7h-2.4V243.6L498.8,243.6z M327.3,489.5v3.6c0,3.8,1.9,5.2,4.8,5.6l4.6,0.7c0.5,0.1,0.8,0.4,0.8,1.2
			c0,0.5-0.3,1-0.8,1h-8.2c-0.8,0-1.1,0.4-1.1,1.2v4c0,0.9,0.3,1.2,1.1,1.2h9.7c4,0,6.3-2.1,6.3-6v-3.6c0-3.8-1.9-5.2-4.8-5.6
			l-4.6-0.7c-0.5-0.1-0.8-0.5-0.8-1.1s0.3-1,0.8-1h7.1c0.8,0,1.1-0.4,1.1-1.2v-4c0-0.9-0.3-1.2-1.1-1.2h-8.6
			C329.6,483.6,327.3,485.7,327.3,489.5L327.3,489.5z M349.9,484.8v22c0,0.9,0.3,1.2,1.1,1.2h4.6c0.8,0,1.1-0.4,1.1-1.2v-12l1.8,3.7
			c0.4,0.8,0.8,1.1,1.6,1.1h1.2c0.8,0,1.3-0.3,1.6-1.1l1.8-3.7v12c0,0.9,0.3,1.2,1.1,1.2h4.7c0.8,0,1.1-0.4,1.1-1.2v-22
			c0-0.9-0.3-1.2-1.1-1.2h-5c-0.6,0-1,0.3-1.4,1l-2.7,5.5c-0.2,0.4-0.3,0.6-0.5,0.6h-0.3c-0.2,0-0.3-0.2-0.5-0.6l-2.8-5.5
			c-0.4-0.8-0.8-1-1.4-1H351C350.2,483.5,349.9,483.9,349.9,484.8L349.9,484.8z M387.2,508.5c7.6,0,9.5-2.8,9.5-6.9V490
			c0-4.1-1.8-7-9.5-7s-9.5,2.8-9.5,7v11.6C377.7,505.8,379.5,508.5,387.2,508.5z M384.6,491.2c0-0.9,0.4-1.6,2.6-1.6
			s2.6,0.7,2.6,1.6v9.1c0,0.9-0.3,1.6-2.6,1.6s-2.6-0.7-2.6-1.6V491.2z M403.8,508h4.8c0.8,0,1.1-0.4,1.1-1.2V499h4
			c0.6,0,1,0.4,1,1.2v6.6c0,0.9,0.3,1.2,1.1,1.2h4.7c0.8,0,1.1-0.4,1.1-1.2v-9.6c0-2.7-1.5-4.5-3.8-4.6l3.1-7.9
			c0.3-0.7,0-1.1-0.7-1.1h-4.7c-0.8,0-1.2,0.3-1.5,1.1l-3.1,7.9h-1.2v-7.8c0-0.9-0.3-1.2-1.1-1.2h-4.8c-0.8,0-1.1,0.4-1.1,1.2v22
			C402.7,507.7,403,508,403.8,508L403.8,508z M443,490c0.8,0,1.1-0.4,1.1-1.2v-4c0-0.9-0.3-1.2-1.1-1.2h-14.2
			c-0.8,0-1.1,0.4-1.1,1.2v22c0,0.9,0.3,1.2,1.1,1.2H443c0.8,0,1.1-0.4,1.1-1.2v-4c0-0.9-0.3-1.2-1.1-1.2h-8.5v-2.9h6
			c0.8,0,1.1-0.4,1.1-1.2v-3.6c0-0.9-0.3-1.2-1.1-1.2h-6V490L443,490L443,490z M450.9,508h10.3c5.1,0,7.5-2.2,7.5-6.9v-10.6
			c0-4.7-2.4-6.9-7.5-6.9h-10.3c-0.8,0-1.1,0.4-1.1,1.2v22C449.8,507.7,450.2,508,450.9,508z M456.8,490h3.6c1,0,1.4,0.5,1.4,1.6
			v8.3c0,1.2-0.5,1.7-1.4,1.7h-3.6V490z M484.9,508h11.8c4.1,0,5.9-1.8,5.9-5.6v-3.1c0-3.3-1.2-5-3.9-5.3c1.2-0.6,1.8-1.8,1.8-3.7
			v-1.6c0-3.6-1.9-5.2-5.9-5.2h-9.8c-0.8,0-1.1,0.4-1.1,1.2v22C483.8,507.7,484.2,508,484.9,508L484.9,508z M490.7,489.3h2.6
			c0.8,0,1.2,0.4,1.2,1.4v1c0,0.9-0.4,1.4-1.2,1.4h-2.6V489.3L490.7,489.3z M490.7,498.2h4c0.8,0,1.2,0.4,1.2,1.3v1.3
			c0,0.9-0.4,1.4-1.2,1.4h-4V498.2L490.7,498.2z M507.8,490v11.6c0,4.1,1.9,6.9,9.5,6.9c7.6,0,9.5-2.8,9.5-6.9V490
			c0-4.1-1.8-7-9.5-7S507.8,485.8,507.8,490z M519.9,491.2v9.1c0,0.9-0.3,1.6-2.6,1.6s-2.6-0.7-2.6-1.6v-9.1c0-0.9,0.4-1.6,2.6-1.6
			S519.9,490.3,519.9,491.2z M532.5,490v11.6c0,4.1,1.9,6.9,9.5,6.9s9.5-2.8,9.5-6.9V490c0-4.1-1.8-7-9.5-7S532.5,485.8,532.5,490z
			 M544.6,491.2v9.1c0,0.9-0.3,1.6-2.6,1.6s-2.6-0.7-2.6-1.6v-9.1c0-0.9,0.4-1.6,2.6-1.6S544.6,490.3,544.6,491.2z M557.5,484.8v22
			c0,0.9,0.3,1.2,1.1,1.2h4.8c0.8,0,1.1-0.4,1.1-1.2v-6.7h5.3c0.8,0,1.1-0.4,1.1-1.2v-4.1c0-0.9-0.3-1.2-1.1-1.2h-5.3V490h7.8
			c0.8,0,1.1-0.4,1.1-1.2v-4c0-0.9-0.3-1.2-1.1-1.2h-13.7C557.9,483.5,557.5,483.9,557.5,484.8L557.5,484.8z M311.9,465.5h4.7
			c0.8,0,1.1-0.4,1.1-1.2v-6.7h4.3c0.9,0,1.2,0.4,1.2,1.5v5.2c0,0.9,0.3,1.2,1.1,1.2h4.8c0.8,0,1.1-0.4,1.1-1.2v-7.2
			c0-2.9-1.5-4.7-3.7-4.9c1.3-0.6,1.7-2,1.7-3.9v-1.6c0-3.4-1.4-5.7-6-5.7h-10.2c-0.8,0-1.1,0.4-1.1,1.2v22
			C310.8,465.1,311.2,465.5,311.9,465.5L311.9,465.5z M317.7,447.1h2.3c1.1,0,1.4,0.7,1.4,1.6v1.2c0,0.9-0.3,1.6-1.4,1.6h-2.3V447.1
			L317.7,447.1z M336.8,465.5H351c0.8,0,1.1-0.4,1.1-1.2v-4c0-0.9-0.3-1.2-1.1-1.2h-8.5v-2.9h6c0.8,0,1.1-0.4,1.1-1.2v-3.6
			c0-0.9-0.3-1.2-1.1-1.2h-6v-2.6h8.5c0.8,0,1.1-0.4,1.1-1.2v-4c0-0.9-0.3-1.2-1.1-1.2h-14.2c-0.8,0-1.1,0.4-1.1,1.2v22
			C335.7,465.1,336,465.5,336.8,465.5L336.8,465.5z M358.5,465.5h4.5c0.8,0,1.1-0.4,1.1-1.2v-4.8h5.4v4.8c0,0.9,0.4,1.2,1.2,1.2h4.6
			c0.8,0,1.1-0.4,1.1-1.2v-9c0-1.4-0.4-3.1-1.2-5.4l-2.7-7.7c-0.2-0.8-0.7-1.1-1.5-1.1h-8.2c-0.8,0-1.3,0.3-1.6,1.1l-2.7,7.7
			c-0.8,2.4-1.2,4.1-1.2,5.4v9C357.4,465.1,357.7,465.5,358.5,465.5L358.5,465.5z M365.9,448.2c0.1-0.4,0.3-0.6,0.6-0.6h0.8
			c0.2,0,0.4,0.2,0.6,0.6l1.4,5.2h-4.8L365.9,448.2L365.9,448.2z M383.4,465.5H399c0.8,0,1.1-0.4,1.1-1.2v-10.7
			c0-0.9-0.3-1.2-1.1-1.2h-4.4c-0.8,0-1.1,0.4-1.1,1.2v5.5h-4.2v-16.8c0-0.9-0.3-1.2-1.1-1.2h-4.8c-0.8,0-1.1,0.4-1.1,1.2v22
			C382.3,465.1,382.7,465.5,383.4,465.5L383.4,465.5z M406.4,465.5h13c0.8,0,1.1-0.4,1.1-1.2v-4c0-0.9-0.3-1.2-1.1-1.2h-3v-11.4h3
			c0.8,0,1.1-0.4,1.1-1.2v-4.1c0-0.9-0.3-1.2-1.1-1.2h-13c-0.8,0-1.1,0.4-1.1,1.2v4.1c0,0.9,0.3,1.2,1.1,1.2h3V459h-3
			c-0.8,0-1.1,0.4-1.1,1.2v4C405.3,465.1,405.6,465.5,406.4,465.5z M426.8,465.5H442c0.8,0,1.1-0.4,1.1-1.2v-4
			c0-0.9-0.3-1.2-1.1-1.2h-7.3l7.1-9.6c0.5-0.6,0.8-1.2,0.8-2.1v-5.1c0-0.9-0.3-1.2-1.1-1.2h-14.1c-0.8,0-1.1,0.4-1.1,1.2v4.1
			c0,0.9,0.3,1.2,1.1,1.2h6.5l-7.4,10c-0.5,0.6-0.8,1.2-0.8,2.1v4.6C425.7,465.2,426,465.5,426.8,465.5L426.8,465.5z M449.4,459
			c-0.8,0-1.1,0.4-1.1,1.2v4c0,0.9,0.3,1.2,1.1,1.2h13c0.8,0,1.1-0.4,1.1-1.2v-4c0-0.9-0.3-1.2-1.1-1.2h-3v-11.4h3
			c0.8,0,1.1-0.4,1.1-1.2v-4.1c0-0.9-0.3-1.2-1.1-1.2h-13c-0.8,0-1.1,0.4-1.1,1.2v4.1c0,0.9,0.3,1.2,1.1,1.2h3V459H449.4z
			 M482.5,465.5h4.6c0.8,0,1.1-0.4,1.1-1.2v-22c0-0.9-0.3-1.2-1.1-1.2h-4.6c-0.8,0-1.1,0.4-1.1,1.2v7.2l-5.9-7.5
			c-0.5-0.7-1-0.9-1.8-0.9h-3.2c-0.8,0-1.1,0.4-1.1,1.2v22c0,0.9,0.3,1.2,1.1,1.2h4.6c0.8,0,1.1-0.4,1.1-1.2v-11.2l5.2,7v4.2
			C481.4,465.1,481.8,465.5,482.5,465.5z M512.5,464.3v-10.5c0-0.9-0.3-1.2-1.1-1.2h-4.8c-0.8,0-1.1,0.4-1.1,1.2v5.3h-3
			c-1,0-1.4-0.5-1.4-1.7v-8.1c0-1.2,0.6-1.7,1.9-1.7h6.4c0.8,0,1.1-0.4,1.1-1.2v-4.1c0-0.9-0.3-1.2-1.1-1.2h-7.6
			c-5.1,0-7.5,2.2-7.5,6.9v10.6c0,4.7,2.4,6.9,7.5,6.9h9.6C512.2,465.5,512.5,465.1,512.5,464.3L512.5,464.3z M532.2,459.9v4.4
			c0,0.9,0.3,1.2,1.1,1.2h5c0.8,0,1.1-0.4,1.1-1.2V460l4.7-7c0.9-1.4,1.2-2.1,1.2-4.2v-6.5c0-0.9-0.3-1.2-1.1-1.2h-4.6
			c-0.8,0-1.1,0.4-1.1,1.2v5.6c0,0.5,0,1-0.3,1.4l-1.4,2.5c-0.2,0.4-0.4,0.6-0.7,0.6h-0.3c-0.3,0-0.5-0.2-0.7-0.6l-1.4-2.5
			c-0.3-0.5-0.3-1-0.3-1.4v-5.6c0-0.9-0.3-1.2-1.1-1.2h-4.7c-0.8,0-1.1,0.4-1.1,1.2v6.5c0,2.1,0.2,2.8,1.2,4.2L532.2,459.9
			L532.2,459.9z M560,466c7.7,0,9.5-2.8,9.5-6.9v-11.6c0-4.1-1.8-7-9.5-7s-9.5,2.8-9.5,7v11.6C550.5,463.2,552.4,466,560,466z
			 M557.4,448.7c0-0.9,0.4-1.6,2.6-1.6s2.6,0.7,2.6,1.6v9.1c0,0.9-0.3,1.6-2.6,1.6s-2.6-0.7-2.6-1.6V448.7z M584.8,466
			c7.6,0,9.5-2.8,9.5-6.9v-16.8c0-0.9-0.3-1.2-1.1-1.2h-4.7c-0.8,0-1.1,0.4-1.1,1.2v15.5c0,0.9-0.4,1.6-2.5,1.6s-2.5-0.7-2.5-1.6
			v-15.5c0-0.9-0.3-1.2-1.1-1.2h-4.8c-0.8,0-1.1,0.4-1.1,1.2v16.8C575.4,463.2,577.3,466,584.8,466L584.8,466z M695.4,59.8h3.2
			c0.5,0,0.7-0.2,0.7-0.8v-5.1h3.4V59c0,0.6,0.2,0.8,0.7,0.8h3.2c0.5,0,0.7-0.2,0.7-0.8V44.2c0-0.6-0.2-0.8-0.7-0.8h-3.2
			c-0.5,0-0.7,0.2-0.7,0.8v5h-3.4v-5c0-0.6-0.2-0.8-0.7-0.8h-3.2c-0.5,0-0.7,0.2-0.7,0.8V59C694.6,59.5,694.8,59.8,695.4,59.8z
			 M715,43.4c-0.5,0-0.9,0.2-1,0.8l-1.8,5.2c-0.5,1.6-0.8,2.7-0.8,3.7v6c0,0.6,0.2,0.8,0.7,0.8h3c0.5,0,0.7-0.2,0.7-0.8v-3.2h3.6V59
			c0,0.6,0.2,0.8,0.8,0.8h3.1c0.5,0,0.7-0.2,0.7-0.8v-6c0-0.9-0.2-2-0.8-3.7l-1.8-5.2c-0.2-0.5-0.5-0.8-1-0.8H715L715,43.4z
			 M716,51.6l1-3.5c0.1-0.3,0.2-0.4,0.4-0.4h0.5c0.2,0,0.3,0.1,0.4,0.4l1,3.5H716L716,51.6z M739.9,50.7v-2.9c0-2.7-1.1-4.5-4.8-4.5
			h-6.3c-0.5,0-0.7,0.2-0.7,0.8V59c0,0.6,0.2,0.8,0.7,0.8h3.2c0.5,0,0.7-0.2,0.7-0.8v-3.8h2.4C738.8,55.2,739.9,53.4,739.9,50.7
			L739.9,50.7z M732.7,51.1v-3.4h1.8c0.8,0,1,0.5,1,1.1V50c0,0.6-0.2,1.1-1,1.1L732.7,51.1L732.7,51.1z M744.2,43.4
			c-0.5,0-0.7,0.2-0.7,0.8V59c0,0.6,0.2,0.8,0.7,0.8h3.2c0.5,0,0.7-0.2,0.7-0.8v-3.8h2.4c3.7,0,4.8-1.8,4.8-4.5v-2.9
			c0-2.7-1.1-4.5-4.8-4.5L744.2,43.4L744.2,43.4z M750.9,48.7V50c0,0.6-0.2,1.1-1,1.1h-1.8v-3.4h1.8
			C750.7,47.6,750.9,48.2,750.9,48.7L750.9,48.7z M759.3,59.8h8.7c0.5,0,0.7-0.2,0.7-0.8v-2.7c0-0.6-0.2-0.8-0.7-0.8h-2v-7.7h2
			c0.5,0,0.7-0.2,0.7-0.8v-2.8c0-0.6-0.2-0.8-0.7-0.8h-8.7c-0.5,0-0.7,0.2-0.7,0.8V47c0,0.6,0.2,0.8,0.7,0.8h2v7.7h-2
			c-0.5,0-0.7,0.2-0.7,0.8V59C758.6,59.5,758.8,59.8,759.3,59.8z M773.5,59.8h3.1c0.5,0,0.7-0.2,0.7-0.8v-7.5l3.5,4.7V59
			c0,0.6,0.2,0.8,0.7,0.8h3.1c0.5,0,0.7-0.2,0.7-0.8V44.2c0-0.6-0.2-0.8-0.7-0.8h-3.1c-0.5,0-0.7,0.2-0.7,0.8V49l-4-5.1
			c-0.3-0.5-0.7-0.6-1.2-0.6h-2.1c-0.5,0-0.7,0.2-0.7,0.8V59C772.8,59.5,773,59.8,773.5,59.8L773.5,59.8z M790.4,59.8h9.5
			c0.5,0,0.7-0.2,0.7-0.8v-2.7c0-0.6-0.2-0.8-0.7-0.8h-5.7v-2h4c0.5,0,0.7-0.2,0.7-0.8v-2.4c0-0.6-0.2-0.8-0.7-0.8h-4v-1.8h5.7
			c0.5,0,0.7-0.2,0.7-0.8v-2.7c0-0.6-0.2-0.8-0.7-0.8h-9.5c-0.5,0-0.7,0.2-0.7,0.8V59C789.6,59.5,789.9,59.8,790.4,59.8z
			 M804.9,59.8h6.5c2.7,0,4.2-1.4,4.2-4v-2.4c0-2.5-1.3-3.5-3.2-3.8l-3.1-0.5c-0.3,0-0.5-0.3-0.5-0.7s0.2-0.7,0.5-0.7h4.8
			c0.5,0,0.7-0.2,0.7-0.8v-2.7c0-0.6-0.2-0.8-0.7-0.8h-5.8c-2.7,0-4.2,1.4-4.2,4v2.4c0,2.5,1.2,3.5,3.2,3.8l3.1,0.5
			c0.3,0,0.5,0.2,0.5,0.8c0,0.4-0.2,0.7-0.5,0.7h-5.5c-0.5,0-0.7,0.2-0.7,0.8V59C804.1,59.5,804.3,59.8,804.9,59.8L804.9,59.8z
			 M819.5,59.8h6.5c2.7,0,4.2-1.4,4.2-4v-2.4c0-2.5-1.3-3.5-3.2-3.8l-3.1-0.5c-0.3,0-0.5-0.3-0.5-0.7s0.2-0.7,0.5-0.7h4.8
			c0.5,0,0.7-0.2,0.7-0.8v-2.7c0-0.6-0.2-0.8-0.7-0.8H823c-2.7,0-4.2,1.4-4.2,4v2.4c0,2.5,1.2,3.5,3.2,3.8L825,54
			c0.3,0,0.5,0.2,0.5,0.8c0,0.4-0.2,0.7-0.5,0.7h-5.5c-0.5,0-0.7,0.2-0.7,0.8V59C818.8,59.5,819,59.8,819.5,59.8L819.5,59.8z
			 M695.4,34.1h3.2c0.5,0,0.7-0.2,0.7-0.8v-3.8h2.4c3.7,0,4.8-1.8,4.8-4.5v-2.9c0-2.6-1.1-4.4-4.8-4.4h-6.3c-0.5,0-0.7,0.2-0.7,0.8
			v14.8C694.6,33.9,694.8,34.1,695.4,34.1L695.4,34.1z M699.2,22h1.8c0.8,0,1,0.5,1,1.1v1.2c0,0.6-0.2,1.1-1,1.1h-1.8V22L699.2,22z
			 M710.8,34.1h9.5c0.5,0,0.7-0.2,0.7-0.8v-2.7c0-0.6-0.2-0.8-0.7-0.8h-5.7v-2h4c0.5,0,0.7-0.2,0.7-0.8v-2.4c0-0.6-0.2-0.8-0.7-0.8
			h-4V22h5.7c0.5,0,0.7-0.2,0.7-0.8v-2.7c0-0.6-0.2-0.8-0.7-0.8h-9.5c-0.5,0-0.7,0.2-0.7,0.8v14.8C710,33.9,710.3,34.1,710.8,34.1z
			 M725.3,34.1h3c0.5,0,0.7-0.2,0.7-0.8v-3.2h3.6v3.2c0,0.6,0.2,0.8,0.8,0.8h3.1c0.5,0,0.7-0.2,0.7-0.8v-6c0-0.9-0.2-2-0.8-3.6
			l-1.8-5.2c-0.2-0.5-0.5-0.8-1-0.8h-5.5c-0.5,0-0.9,0.2-1,0.8l-1.8,5.2c-0.5,1.6-0.8,2.7-0.8,3.6v6
			C724.6,33.9,724.8,34.1,725.3,34.1L725.3,34.1z M730.3,22.5c0.1-0.3,0.2-0.4,0.4-0.4h0.5c0.2,0,0.3,0.1,0.4,0.4l1,3.5h-3.2
			L730.3,22.5L730.3,22.5z M742.1,34.1h3.2c0.5,0,0.7-0.2,0.7-0.8v-5.2h2.7c0.4,0,0.7,0.3,0.7,0.8v4.5c0,0.6,0.2,0.8,0.7,0.8h3.2
			c0.5,0,0.7-0.2,0.7-0.8v-6.4c0-1.8-1-3-2.5-3.1l2.1-5.3c0.2-0.5,0-0.8-0.5-0.8H750c-0.5,0-0.8,0.2-1,0.8l-2.1,5.3H746v-5.2
			c0-0.6-0.2-0.8-0.7-0.8h-3.2c-0.5,0-0.7,0.2-0.7,0.8v14.8C741.3,33.9,741.6,34.1,742.1,34.1L742.1,34.1z"/>
		<path class="st3" d="M449.8,527.4c69.2,0,125.4,7,125.4,15.7s-56.1,15.7-125.4,15.7s-125.4-7-125.4-15.7S380.6,527.4,449.8,527.4z
			"/>
		<path class="st2" d="M685.8,35.6h-26.6v-3h26.6V35.6z M626.1,35.6h-33v-3h33V35.6z M560.1,35.6h-33v-3h33V35.6z M494.1,35.6h-33
			v-3h33V35.6z M428.1,35.6h-33v-3h33V35.6z M362.1,35.6h-33v-3h33V35.6z M296.1,35.6h-33v-3h33V35.6z M230.1,35.6h-33v-3h33V35.6z
			 M164.1,35.6h-33v-3h33V35.6z M98.1,35.6h-33v-3h33V35.6z"/>
		<path class="st2" d="M685.8,383.9h-26.6v-3h26.6V383.9z M626.1,383.9h-33v-3h33V383.9z M560.1,383.9h-33v-3h33V383.9z
			 M494.1,383.9h-33v-3h33V383.9z M428.1,383.9h-33v-3h33V383.9z M362.1,383.9h-33v-3h33V383.9z M296.1,383.9h-33v-3h33V383.9z
			 M230.1,383.9h-33v-3h33V383.9z M164.1,383.9h-33v-3h33V383.9z M98.1,383.9h-33v-3h33V383.9z"/>
	</g>
</g>
</svg>
